<svg width="27" height="28" viewBox="0 0 27 28" fill="none" xmlns="http://www.w3.org/2000/svg">
<g id="Component 3">
<path id="Vector" d="M24.1315 20.9323L20.6742 4.49476C20.6295 4.27981 20.5428 4.0758 20.419 3.89447C20.2952 3.71314 20.1368 3.55806 19.9529 3.43813C19.769 3.3182 19.5632 3.23579 19.3473 3.19564C19.1314 3.15548 18.9098 3.15837 18.6951 3.20414L13.819 4.25206C13.3877 4.34649 13.0111 4.6074 12.7712 4.97804C12.5313 5.34867 12.4474 5.79905 12.5378 6.23122L15.9951 22.6687C16.0721 23.0437 16.2759 23.3808 16.5722 23.6232C16.8685 23.8657 17.2393 23.9987 17.6221 24C17.7405 23.9998 17.8585 23.9872 17.9742 23.9625L22.8503 22.9146C23.2821 22.8199 23.659 22.5585 23.899 22.1872C24.139 21.8159 24.2225 21.3649 24.1315 20.9323ZM14.168 5.8906C14.168 5.88435 14.168 5.88122 14.168 5.88122L19.043 4.83956L19.3898 6.49268L14.5148 7.54164L14.168 5.8906ZM14.8576 9.16872L19.7346 8.12185L20.0826 9.7781L15.2096 10.826L14.8576 9.16872ZM15.5492 12.4573L20.4263 11.4093L21.8117 17.9968L16.9346 19.0448L15.5492 12.4573ZM22.5013 21.2854L17.6263 22.3271L17.2794 20.6739L22.1544 19.625L22.5013 21.276C22.5013 21.2823 22.5013 21.2854 22.5013 21.2854ZM10.8346 3.99997H5.83464C5.39261 3.99997 4.96868 4.17557 4.65612 4.48813C4.34356 4.80069 4.16797 5.22461 4.16797 5.66664V22.3333C4.16797 22.7753 4.34356 23.1993 4.65612 23.5118C4.96868 23.8244 5.39261 24 5.83464 24H10.8346C11.2767 24 11.7006 23.8244 12.0131 23.5118C12.3257 23.1993 12.5013 22.7753 12.5013 22.3333V5.66664C12.5013 5.22461 12.3257 4.80069 12.0131 4.48813C11.7006 4.17557 11.2767 3.99997 10.8346 3.99997ZM5.83464 5.66664H10.8346V7.33331H5.83464V5.66664ZM5.83464 8.99997H10.8346V19H5.83464V8.99997ZM10.8346 22.3333H5.83464V20.6666H10.8346V22.3333Z" fill="#0E0E0E"/>
</g>
</svg>
