<svg width="27" height="28" viewBox="0 0 27 28" fill="none" xmlns="http://www.w3.org/2000/svg">
<g id="Component 3">
<path id="Vector" d="M13.334 3.16664C7.72669 3.16664 3.33398 5.72914 3.33398 8.99997V19C3.33398 22.2708 7.72669 24.8333 13.334 24.8333C18.9413 24.8333 23.334 22.2708 23.334 19V8.99997C23.334 5.72914 18.9413 3.16664 13.334 3.16664ZM21.6673 14C21.6673 15.0021 20.8465 16.0239 19.4163 16.8041C17.8059 17.6823 15.6454 18.1666 13.334 18.1666C11.0225 18.1666 8.86211 17.6823 7.25169 16.8041C5.82148 16.0239 5.00065 15.0021 5.00065 14V12.2666C6.77773 13.8291 9.81628 14.8333 13.334 14.8333C16.8517 14.8333 19.8902 13.825 21.6673 12.2666V14ZM7.25169 6.19581C8.86211 5.31768 11.0225 4.83331 13.334 4.83331C15.6454 4.83331 17.8059 5.31768 19.4163 6.19581C20.8465 6.97602 21.6673 7.99789 21.6673 8.99997C21.6673 10.0021 20.8465 11.0239 19.4163 11.8041C17.8059 12.6823 15.6454 13.1666 13.334 13.1666C11.0225 13.1666 8.86211 12.6823 7.25169 11.8041C5.82148 11.0239 5.00065 10.0021 5.00065 8.99997C5.00065 7.99789 5.82148 6.97602 7.25169 6.19581ZM19.4163 21.8041C17.8059 22.6823 15.6454 23.1666 13.334 23.1666C11.0225 23.1666 8.86211 22.6823 7.25169 21.8041C5.82148 21.0239 5.00065 20.0021 5.00065 19V17.2666C6.77773 18.8291 9.81628 19.8333 13.334 19.8333C16.8517 19.8333 19.8902 18.825 21.6673 17.2666V19C21.6673 20.0021 20.8465 21.0239 19.4163 21.8041Z" fill="#0E0E0E"/>
</g>
</svg>
