<svg width="27" height="27" viewBox="0 0 27 27" fill="none" xmlns="http://www.w3.org/2000/svg">
<g id="Component 3" clip-path="url(#clip0_1404_5750)">
<path id="Vector" d="M21.0302 6.02711C20.0333 5.02021 18.8476 4.21983 17.541 3.6718C16.2344 3.12377 14.8325 2.83885 13.4156 2.83336H13.3333C10.4602 2.83336 7.70465 3.97472 5.67301 6.00637C3.64137 8.03801 2.5 10.7935 2.5 13.6667V19.5C2.5 20.1631 2.76339 20.799 3.23223 21.2678C3.70107 21.7366 4.33696 22 5 22H6.66667C7.32971 22 7.96559 21.7366 8.43443 21.2678C8.90327 20.799 9.16667 20.1631 9.16667 19.5V15.3334C9.16667 14.6703 8.90327 14.0344 8.43443 13.5656C7.96559 13.0968 7.32971 12.8334 6.66667 12.8334H4.20417C4.36488 11.0958 5.01754 9.44003 6.08565 8.06013C7.15376 6.68024 8.59308 5.63339 10.2349 5.04228C11.8767 4.45117 13.653 4.34029 15.3556 4.72264C17.0582 5.10498 18.6165 5.96472 19.8479 7.20107C21.353 8.71388 22.2788 10.7074 22.4635 12.8334H20C19.337 12.8334 18.7011 13.0968 18.2322 13.5656C17.7634 14.0344 17.5 14.6703 17.5 15.3334V19.5C17.5 20.1631 17.7634 20.799 18.2322 21.2678C18.7011 21.7366 19.337 22 20 22H22.5C22.5 22.6631 22.2366 23.299 21.7678 23.7678C21.2989 24.2366 20.663 24.5 20 24.5H14.1667C13.9457 24.5 13.7337 24.5878 13.5774 24.7441C13.4211 24.9004 13.3333 25.1123 13.3333 25.3334C13.3333 25.5544 13.4211 25.7663 13.5774 25.9226C13.7337 26.0789 13.9457 26.1667 14.1667 26.1667H20C21.1051 26.1667 22.1649 25.7277 22.9463 24.9463C23.7277 24.1649 24.1667 23.1051 24.1667 22V13.6667C24.1721 12.2496 23.8978 10.8453 23.3596 9.53439C22.8214 8.22345 22.0298 7.03159 21.0302 6.02711ZM6.66667 14.5C6.88768 14.5 7.09964 14.5878 7.25592 14.7441C7.4122 14.9004 7.5 15.1123 7.5 15.3334V19.5C7.5 19.721 7.4122 19.933 7.25592 20.0893C7.09964 20.2456 6.88768 20.3334 6.66667 20.3334H5C4.77899 20.3334 4.56702 20.2456 4.41074 20.0893C4.25446 19.933 4.16667 19.721 4.16667 19.5V14.5H6.66667ZM20 20.3334C19.779 20.3334 19.567 20.2456 19.4107 20.0893C19.2545 19.933 19.1667 19.721 19.1667 19.5V15.3334C19.1667 15.1123 19.2545 14.9004 19.4107 14.7441C19.567 14.5878 19.779 14.5 20 14.5H22.5V20.3334H20Z" fill="#0E0E0E"/>
</g>
<defs>
<clipPath id="clip0_1404_5750">
<rect width="26.6667" height="26.6667" fill="white" transform="translate(0 0.333313)"/>
</clipPath>
</defs>
</svg>
