<svg width="28" height="27" viewBox="0 0 28 27" fill="none" xmlns="http://www.w3.org/2000/svg">
<g id="ai 1">
<g id="AI">
<path id="Vector" d="M12.0501 6.27407L12.7276 8.15563C13.4803 10.2439 15.1247 11.8884 17.213 12.641L19.0946 13.3185C19.2642 13.3801 19.2642 13.6206 19.0946 13.6813L17.213 14.3589C15.1247 15.1115 13.4803 16.756 12.7276 18.8443L12.0501 20.7258C11.9885 20.8954 11.748 20.8954 11.6873 20.7258L11.0098 18.8443C10.2571 16.756 8.61266 15.1115 6.52438 14.3589L4.64282 13.6813C4.47323 13.6198 4.47323 13.3793 4.64282 13.3185L6.52438 12.641C8.61266 11.8884 10.2571 10.2439 11.0098 8.15563L11.6873 6.27407C11.748 6.10363 11.9885 6.10363 12.0501 6.27407Z" fill="url(#paint0_linear_1404_5753)"/>
<path id="Vector_2" d="M20.519 1.75241L20.8624 2.705C21.2438 3.76222 22.0765 4.595 23.1338 4.97637L24.0864 5.31978C24.1724 5.351 24.1724 5.4725 24.0864 5.50372L23.1338 5.84712C22.0765 6.2285 21.2438 7.06128 20.8624 8.1185L20.519 9.07109C20.4878 9.15716 20.3663 9.15716 20.335 9.07109L19.9916 8.1185C19.6103 7.06128 18.7775 6.2285 17.7203 5.84712L16.7677 5.50372C16.6816 5.4725 16.6816 5.351 16.7677 5.31978L17.7203 4.97637C18.7775 4.595 19.6103 3.76222 19.9916 2.705L20.335 1.75241C20.3663 1.6655 20.4886 1.6655 20.519 1.75241Z" fill="url(#paint1_linear_1404_5753)"/>
<path id="Vector_3" d="M20.519 17.9298L20.8624 18.8823C21.2438 19.9396 22.0765 20.7723 23.1338 21.1537L24.0864 21.4971C24.1724 21.5283 24.1724 21.6498 24.0864 21.6811L23.1338 22.0245C22.0765 22.4058 21.2438 23.2386 20.8624 24.2958L20.519 25.2484C20.4878 25.3345 20.3663 25.3345 20.335 25.2484L19.9916 24.2958C19.6103 23.2386 18.7775 22.4058 17.7203 22.0245L16.7677 21.6811C16.6816 21.6498 16.6816 21.5283 16.7677 21.4971L17.7203 21.1537C18.7775 20.7723 19.6103 19.9396 19.9916 18.8823L20.335 17.9298C20.3663 17.8437 20.4886 17.8437 20.519 17.9298Z" fill="url(#paint2_linear_1404_5753)"/>
</g>
</g>
<defs>
<linearGradient id="paint0_linear_1404_5753" x1="19.2218" y1="6.14624" x2="1.57014" y2="12.0575" gradientUnits="userSpaceOnUse">
<stop stop-color="#451B05"/>
<stop offset="0.546408" stop-color="#F07306"/>
<stop offset="1" stop-color="#451B05"/>
</linearGradient>
<linearGradient id="paint1_linear_1404_5753" x1="24.1509" y1="1.68723" x2="15.2113" y2="4.68081" gradientUnits="userSpaceOnUse">
<stop stop-color="#451B05"/>
<stop offset="0.546408" stop-color="#F07306"/>
<stop offset="1" stop-color="#451B05"/>
</linearGradient>
<linearGradient id="paint2_linear_1404_5753" x1="24.1509" y1="17.8652" x2="15.2115" y2="20.859" gradientUnits="userSpaceOnUse">
<stop stop-color="#451B05"/>
<stop offset="0.546408" stop-color="#F07306"/>
<stop offset="1" stop-color="#451B05"/>
</linearGradient>
</defs>
</svg>
