<svg width="27" height="27" viewBox="0 0 27 27" fill="none" xmlns="http://www.w3.org/2000/svg">
<g id="Component 3">
<path id="Vector" d="M21.8399 12.7437C21.9173 12.8211 21.9788 12.913 22.0207 13.0142C22.0627 13.1153 22.0843 13.2238 22.0843 13.3333C22.0843 13.4428 22.0627 13.5512 22.0207 13.6524C21.9788 13.7536 21.9173 13.8455 21.8399 13.9229L13.293 22.4645C12.1988 23.5586 10.7149 24.1731 9.16761 24.173C7.62034 24.1729 6.13648 23.5582 5.04246 22.464C3.94844 21.3699 3.33389 19.8859 3.33398 18.3387C3.33408 16.7914 3.94883 15.3075 5.04298 14.2135L15.3826 3.72184C16.1637 2.93987 17.2235 2.50023 18.3288 2.49964C19.4341 2.49906 20.4943 2.93757 21.2763 3.71872C22.0583 4.49986 22.4979 5.55965 22.4985 6.66494C22.4991 7.77023 22.0606 8.83049 21.2794 9.61246L10.9378 20.1041C10.4681 20.5738 9.83113 20.8376 9.16694 20.8376C8.50275 20.8376 7.86576 20.5738 7.39611 20.1041C6.92645 19.6345 6.66261 18.9975 6.66261 18.3333C6.66261 17.6691 6.92645 17.0321 7.39611 16.5625L16.0732 7.74788C16.1492 7.6668 16.2407 7.60173 16.3422 7.55653C16.4437 7.51132 16.5533 7.48687 16.6644 7.48464C16.7755 7.4824 16.886 7.50242 16.9892 7.5435C17.0925 7.58459 17.1865 7.64592 17.2657 7.72388C17.3449 7.80184 17.4077 7.89486 17.4505 7.99746C17.4932 8.10006 17.515 8.21017 17.5145 8.32131C17.514 8.43245 17.4913 8.54238 17.4477 8.64462C17.4042 8.74685 17.3406 8.83934 17.2607 8.91663L8.58257 17.7406C8.50487 17.8177 8.44311 17.9093 8.40083 18.0103C8.35854 18.1112 8.33655 18.2195 8.33612 18.3289C8.33568 18.4384 8.35681 18.5469 8.39829 18.6481C8.43977 18.7494 8.5008 18.8415 8.57788 18.9192C8.65496 18.9969 8.74659 19.0587 8.84754 19.101C8.94849 19.1433 9.05678 19.1652 9.16623 19.1657C9.27568 19.1661 9.38414 19.145 9.48542 19.1035C9.58671 19.062 9.67883 19.001 9.75653 18.9239L20.0971 8.43746C20.5668 7.96878 20.831 7.33272 20.8317 6.66921C20.8324 6.0057 20.5695 5.3691 20.1008 4.89944C19.6321 4.42979 18.996 4.16556 18.3325 4.16487C17.669 4.16419 17.0324 4.42711 16.5628 4.8958L6.22527 15.3833C5.83801 15.7699 5.5307 16.2291 5.32088 16.7345C5.11106 17.2399 5.00284 17.7817 5.0024 18.3289C5.00197 18.8762 5.10932 19.4181 5.31834 19.9239C5.52736 20.4296 5.83394 20.8893 6.22059 21.2765C6.60723 21.6638 7.06637 21.9711 7.57179 22.1809C8.0772 22.3907 8.61899 22.499 9.16623 22.4994C9.71347 22.4998 10.2554 22.3925 10.7612 22.1835C11.2669 21.9744 11.7266 21.6679 12.1138 21.2812L20.6617 12.7395C20.8186 12.5839 21.0307 12.497 21.2517 12.4977C21.4726 12.4985 21.6841 12.587 21.8399 12.7437Z" fill="#0E0E0E"/>
</g>
</svg>
