<svg width="27" height="27" viewBox="0 0 27 27" fill="none" xmlns="http://www.w3.org/2000/svg">
<g id="Component 3">
<path id="Vector" d="M4.4987 13.6666C4.85185 13.9571 5.13642 14.3221 5.33203 14.7354C5.83203 15.7666 5.83203 17.027 5.83203 18.25C5.83203 20.7822 5.9362 22 8.33203 22C8.55304 22 8.76501 22.0878 8.92129 22.244C9.07757 22.4003 9.16536 22.6123 9.16536 22.8333C9.16536 23.0543 9.07757 23.2663 8.92129 23.4225C8.76501 23.5788 8.55304 23.6666 8.33203 23.6666C6.5112 23.6666 5.27786 23.027 4.66536 21.7645C4.16536 20.7333 4.16536 19.4729 4.16536 18.25C4.16536 15.7177 4.0612 14.5 1.66536 14.5C1.44435 14.5 1.23239 14.4122 1.07611 14.2559C0.919829 14.0996 0.832031 13.8876 0.832031 13.6666C0.832031 13.4456 0.919829 13.2336 1.07611 13.0774C1.23239 12.9211 1.44435 12.8333 1.66536 12.8333C4.0612 12.8333 4.16536 11.6156 4.16536 9.08329C4.16536 7.86246 4.16536 6.59996 4.66536 5.56871C5.27995 4.30621 6.51328 3.66662 8.33411 3.66662C8.55513 3.66662 8.76709 3.75442 8.92337 3.9107C9.07965 4.06698 9.16745 4.27894 9.16745 4.49996C9.16745 4.72097 9.07965 4.93293 8.92337 5.08921C8.76709 5.24549 8.55513 5.33329 8.33411 5.33329C5.93828 5.33329 5.83411 6.551 5.83411 9.08329C5.83411 10.3041 5.83411 11.5666 5.33411 12.5979C5.1379 13.0114 4.85261 13.3764 4.4987 13.6666ZM25.0008 12.8333C22.6049 12.8333 22.5008 11.6156 22.5008 9.08329C22.5008 7.86246 22.5008 6.59996 22.0008 5.56871C21.3883 4.30621 20.1549 3.66662 18.3341 3.66662C18.1131 3.66662 17.9011 3.75442 17.7449 3.9107C17.5886 4.06698 17.5008 4.27894 17.5008 4.49996C17.5008 4.72097 17.5886 4.93293 17.7449 5.08921C17.9011 5.24549 18.1131 5.33329 18.3341 5.33329C20.7299 5.33329 20.8341 6.551 20.8341 9.08329C20.8341 10.3041 20.8341 11.5666 21.3341 12.5979C21.5297 13.0112 21.8143 13.3761 22.1674 13.6666C21.8143 13.9571 21.5297 14.3221 21.3341 14.7354C20.8341 15.7666 20.8341 17.027 20.8341 18.25C20.8341 20.7822 20.7299 22 18.3341 22C18.1131 22 17.9011 22.0878 17.7449 22.244C17.5886 22.4003 17.5008 22.6123 17.5008 22.8333C17.5008 23.0543 17.5886 23.2663 17.7449 23.4225C17.9011 23.5788 18.1131 23.6666 18.3341 23.6666C20.1549 23.6666 21.3883 23.027 22.0008 21.7645C22.5008 20.7333 22.5008 19.4729 22.5008 18.25C22.5008 15.7177 22.6049 14.5 25.0008 14.5C25.2218 14.5 25.4338 14.4122 25.59 14.2559C25.7463 14.0996 25.8341 13.8876 25.8341 13.6666C25.8341 13.4456 25.7463 13.2336 25.59 13.0774C25.4338 12.9211 25.2218 12.8333 25.0008 12.8333Z" fill="#0E0E0E"/>
</g>
</svg>
