<svg width="27" height="27" viewBox="0 0 27 27" fill="none" xmlns="http://www.w3.org/2000/svg">
<g id="Component 3">
<path id="Vector" d="M23.334 13.3333C23.334 13.5543 23.2462 13.7663 23.0899 13.9226C22.9336 14.0789 22.7217 14.1667 22.5007 14.1667H14.1673V22.5C14.1673 22.721 14.0795 22.933 13.9232 23.0893C13.767 23.2455 13.555 23.3333 13.334 23.3333C13.113 23.3333 12.901 23.2455 12.7447 23.0893C12.5884 22.933 12.5007 22.721 12.5007 22.5V14.1667H4.16732C3.9463 14.1667 3.73434 14.0789 3.57806 13.9226C3.42178 13.7663 3.33398 13.5543 3.33398 13.3333C3.33398 13.1123 3.42178 12.9004 3.57806 12.7441C3.73434 12.5878 3.9463 12.5 4.16732 12.5H12.5007V4.16667C12.5007 3.94566 12.5884 3.73369 12.7447 3.57741C12.901 3.42113 13.113 3.33334 13.334 3.33334C13.555 3.33334 13.767 3.42113 13.9232 3.57741C14.0795 3.73369 14.1673 3.94566 14.1673 4.16667V12.5H22.5007C22.7217 12.5 22.9336 12.5878 23.0899 12.7441C23.2462 12.9004 23.334 13.1123 23.334 13.3333Z" fill="#0E0E0E"/>
</g>
</svg>
