<svg width="79" height="848" viewBox="0 0 79 848" fill="none" xmlns="http://www.w3.org/2000/svg">
<mask id="path-1-inside-1_1404_5733" fill="white">
<path d="M14 0H64.6667V848H14V0Z"/>
</mask>
<path d="M63.6667 0V848H65.6667V0H63.6667Z" fill="#E0E0E0" mask="url(#path-1-inside-1_1404_5733)"/>
<mask id="path-3-inside-2_1404_5733" fill="white">
<path d="M14 52H64.6667V102.667H14V52Z"/>
</mask>
<path d="M14 52H64.6667V102.667H14V52Z" fill="#FFF2D4"/>
<path d="M62.6667 52V102.667H66.6667V52H62.6667Z" fill="#F07306" mask="url(#path-3-inside-2_1404_5733)"/>
<path d="M49.334 77.3333C49.334 77.5543 49.2462 77.7663 49.0899 77.9226C48.9336 78.0789 48.7217 78.1667 48.5007 78.1667H40.1673V86.5C40.1673 86.721 40.0795 86.933 39.9232 87.0893C39.767 87.2455 39.555 87.3333 39.334 87.3333C39.113 87.3333 38.901 87.2455 38.7447 87.0893C38.5884 86.933 38.5007 86.721 38.5007 86.5V78.1667H30.1673C29.9463 78.1667 29.7343 78.0789 29.5781 77.9226C29.4218 77.7663 29.334 77.5543 29.334 77.3333C29.334 77.1123 29.4218 76.9004 29.5781 76.7441C29.7343 76.5878 29.9463 76.5 30.1673 76.5H38.5007V68.1667C38.5007 67.9457 38.5884 67.7337 38.7447 67.5774C38.901 67.4211 39.113 67.3333 39.334 67.3333C39.555 67.3333 39.767 67.4211 39.9232 67.5774C40.0795 67.7337 40.1673 67.9457 40.1673 68.1667V76.5H48.5007C48.7217 76.5 48.9336 76.5878 49.0899 76.7441C49.2462 76.9004 49.334 77.1123 49.334 77.3333Z" fill="#0E0E0E"/>
<path d="M50.1315 148.932L46.6742 132.495C46.6295 132.28 46.5428 132.076 46.419 131.894C46.2952 131.713 46.1368 131.558 45.9529 131.438C45.769 131.318 45.5632 131.236 45.3473 131.196C45.1314 131.155 44.9098 131.158 44.6951 131.204L39.819 132.252C39.3877 132.346 39.0111 132.607 38.7712 132.978C38.5313 133.349 38.4474 133.799 38.5378 134.231L41.9951 150.669C42.0721 151.044 42.2759 151.381 42.5722 151.623C42.8685 151.866 43.2393 151.999 43.6221 152C43.7405 152 43.8585 151.987 43.9742 151.962L48.8503 150.915C49.2821 150.82 49.659 150.558 49.899 150.187C50.139 149.816 50.2225 149.365 50.1315 148.932ZM40.168 133.891C40.168 133.884 40.168 133.881 40.168 133.881L45.043 132.84L45.3898 134.493L40.5148 135.542L40.168 133.891ZM40.8576 137.169L45.7346 136.122L46.0826 137.778L41.2096 138.826L40.8576 137.169ZM41.5492 140.457L46.4263 139.409L47.8117 145.997L42.9346 147.045L41.5492 140.457ZM48.5013 149.285L43.6263 150.327L43.2794 148.674L48.1544 147.625L48.5013 149.276C48.5013 149.282 48.5013 149.285 48.5013 149.285ZM36.8346 132H31.8346C31.3926 132 30.9687 132.176 30.6561 132.488C30.3436 132.801 30.168 133.225 30.168 133.667V150.333C30.168 150.775 30.3436 151.199 30.6561 151.512C30.9687 151.824 31.3926 152 31.8346 152H36.8346C37.2767 152 37.7006 151.824 38.0131 151.512C38.3257 151.199 38.5013 150.775 38.5013 150.333V133.667C38.5013 133.225 38.3257 132.801 38.0131 132.488C37.7006 132.176 37.2767 132 36.8346 132ZM31.8346 133.667H36.8346V135.333H31.8346V133.667ZM31.8346 137H36.8346V147H31.8346V137ZM36.8346 150.333H31.8346V148.667H36.8346V150.333Z" fill="#0E0E0E"/>
<path d="M30.4987 206.667C30.8519 206.957 31.1364 207.322 31.332 207.735C31.832 208.767 31.832 210.027 31.832 211.25C31.832 213.782 31.9362 215 34.332 215C34.553 215 34.765 215.088 34.9213 215.244C35.0776 215.4 35.1654 215.612 35.1654 215.833C35.1654 216.054 35.0776 216.266 34.9213 216.423C34.765 216.579 34.553 216.667 34.332 216.667C32.5112 216.667 31.2779 216.027 30.6654 214.765C30.1654 213.733 30.1654 212.473 30.1654 211.25C30.1654 208.718 30.0612 207.5 27.6654 207.5C27.4444 207.5 27.2324 207.412 27.0761 207.256C26.9198 207.1 26.832 206.888 26.832 206.667C26.832 206.446 26.9198 206.234 27.0761 206.077C27.2324 205.921 27.4444 205.833 27.6654 205.833C30.0612 205.833 30.1654 204.616 30.1654 202.083C30.1654 200.862 30.1654 199.6 30.6654 198.569C31.2799 197.306 32.5133 196.667 34.3341 196.667C34.5551 196.667 34.7671 196.754 34.9234 196.911C35.0796 197.067 35.1674 197.279 35.1674 197.5C35.1674 197.721 35.0796 197.933 34.9234 198.089C34.7671 198.245 34.5551 198.333 34.3341 198.333C31.9383 198.333 31.8341 199.551 31.8341 202.083C31.8341 203.304 31.8341 204.567 31.3341 205.598C31.1379 206.011 30.8526 206.376 30.4987 206.667ZM51.0008 205.833C48.6049 205.833 48.5008 204.616 48.5008 202.083C48.5008 200.862 48.5008 199.6 48.0008 198.569C47.3883 197.306 46.1549 196.667 44.3341 196.667C44.1131 196.667 43.9011 196.754 43.7449 196.911C43.5886 197.067 43.5008 197.279 43.5008 197.5C43.5008 197.721 43.5886 197.933 43.7449 198.089C43.9011 198.245 44.1131 198.333 44.3341 198.333C46.7299 198.333 46.8341 199.551 46.8341 202.083C46.8341 203.304 46.8341 204.567 47.3341 205.598C47.5297 206.011 47.8143 206.376 48.1674 206.667C47.8143 206.957 47.5297 207.322 47.3341 207.735C46.8341 208.767 46.8341 210.027 46.8341 211.25C46.8341 213.782 46.7299 215 44.3341 215C44.1131 215 43.9011 215.088 43.7449 215.244C43.5886 215.4 43.5008 215.612 43.5008 215.833C43.5008 216.054 43.5886 216.266 43.7449 216.423C43.9011 216.579 44.1131 216.667 44.3341 216.667C46.1549 216.667 47.3883 216.027 48.0008 214.765C48.5008 213.733 48.5008 212.473 48.5008 211.25C48.5008 208.718 48.6049 207.5 51.0008 207.5C51.2218 207.5 51.4338 207.412 51.59 207.256C51.7463 207.1 51.8341 206.888 51.8341 206.667C51.8341 206.446 51.7463 206.234 51.59 206.077C51.4338 205.921 51.2218 205.833 51.0008 205.833Z" fill="#0E0E0E"/>
<path d="M47.8399 270.744C47.9173 270.821 47.9788 270.913 48.0207 271.014C48.0627 271.115 48.0843 271.224 48.0843 271.333C48.0843 271.443 48.0627 271.551 48.0207 271.652C47.9788 271.754 47.9173 271.845 47.8399 271.923L39.293 280.465C38.1988 281.559 36.7149 282.173 35.1676 282.173C33.6203 282.173 32.1365 281.558 31.0425 280.464C29.9484 279.37 29.3339 277.886 29.334 276.339C29.3341 274.791 29.9488 273.308 31.043 272.214L41.3826 261.722C42.1637 260.94 43.2235 260.5 44.3288 260.5C45.4341 260.499 46.4943 260.938 47.2763 261.719C48.0583 262.5 48.4979 263.56 48.4985 264.665C48.4991 265.77 48.0606 266.83 47.2794 267.612L36.9378 278.104C36.4681 278.574 35.8311 278.838 35.1669 278.838C34.5028 278.838 33.8658 278.574 33.3961 278.104C32.9265 277.634 32.6626 276.997 32.6626 276.333C32.6626 275.669 32.9265 275.032 33.3961 274.562L42.0732 265.748C42.1492 265.667 42.2407 265.602 42.3422 265.557C42.4437 265.511 42.5533 265.487 42.6644 265.485C42.7755 265.482 42.886 265.502 42.9892 265.544C43.0925 265.585 43.1865 265.646 43.2657 265.724C43.3449 265.802 43.4077 265.895 43.4505 265.997C43.4932 266.1 43.515 266.21 43.5145 266.321C43.514 266.432 43.4913 266.542 43.4477 266.645C43.4042 266.747 43.3406 266.839 43.2607 266.917L34.5826 275.741C34.5049 275.818 34.4431 275.909 34.4008 276.01C34.3585 276.111 34.3366 276.219 34.3361 276.329C34.3357 276.438 34.3568 276.547 34.3983 276.648C34.4398 276.749 34.5008 276.842 34.5779 276.919C34.655 276.997 34.7466 277.059 34.8475 277.101C34.9485 277.143 35.0568 277.165 35.1662 277.166C35.2757 277.166 35.3841 277.145 35.4854 277.104C35.5867 277.062 35.6788 277.001 35.7565 276.924L46.0971 266.437C46.5668 265.969 46.831 265.333 46.8317 264.669C46.8324 264.006 46.5695 263.369 46.1008 262.899C45.6321 262.43 44.996 262.166 44.3325 262.165C43.669 262.164 43.0324 262.427 42.5628 262.896L32.2253 273.383C31.838 273.77 31.5307 274.229 31.3209 274.734C31.1111 275.24 31.0028 275.782 31.0024 276.329C31.002 276.876 31.1093 277.418 31.3183 277.924C31.5274 278.43 31.8339 278.889 32.2206 279.277C32.6072 279.664 33.0664 279.971 33.5718 280.181C34.0772 280.391 34.619 280.499 35.1662 280.499C35.7135 280.5 36.2554 280.392 36.7612 280.183C37.2669 279.974 37.7266 279.668 38.1138 279.281L46.6617 270.74C46.8186 270.584 47.0307 270.497 47.2517 270.498C47.4726 270.499 47.6841 270.587 47.8399 270.744Z" fill="#0E0E0E"/>
<path d="M39.334 325.167C33.7267 325.167 29.334 327.729 29.334 331V341C29.334 344.271 33.7267 346.833 39.334 346.833C44.9413 346.833 49.334 344.271 49.334 341V331C49.334 327.729 44.9413 325.167 39.334 325.167ZM47.6673 336C47.6673 337.002 46.8465 338.024 45.4163 338.804C43.8059 339.682 41.6454 340.167 39.334 340.167C37.0225 340.167 34.8621 339.682 33.2517 338.804C31.8215 338.024 31.0007 337.002 31.0007 336V334.267C32.7777 335.829 35.8163 336.833 39.334 336.833C42.8517 336.833 45.8902 335.825 47.6673 334.267V336ZM33.2517 328.196C34.8621 327.318 37.0225 326.833 39.334 326.833C41.6454 326.833 43.8059 327.318 45.4163 328.196C46.8465 328.976 47.6673 329.998 47.6673 331C47.6673 332.002 46.8465 333.024 45.4163 333.804C43.8059 334.682 41.6454 335.167 39.334 335.167C37.0225 335.167 34.8621 334.682 33.2517 333.804C31.8215 333.024 31.0007 332.002 31.0007 331C31.0007 329.998 31.8215 328.976 33.2517 328.196ZM45.4163 343.804C43.8059 344.682 41.6454 345.167 39.334 345.167C37.0225 345.167 34.8621 344.682 33.2517 343.804C31.8215 343.024 31.0007 342.002 31.0007 341V339.267C32.7777 340.829 35.8163 341.833 39.334 341.833C42.8517 341.833 45.8902 340.825 47.6673 339.267V341C47.6673 342.002 46.8465 343.024 45.4163 343.804Z" fill="#0E0E0E"/>
<g clip-path="url(#clip0_1404_5733)">
<path d="M47.0302 393.027C46.0333 392.02 44.8476 391.22 43.541 390.672C42.2344 390.124 40.8325 389.839 39.4156 389.833H39.3333C36.4602 389.833 33.7047 390.975 31.673 393.006C29.6414 395.038 28.5 397.794 28.5 400.667V406.5C28.5 407.163 28.7634 407.799 29.2322 408.268C29.7011 408.737 30.337 409 31 409H32.6667C33.3297 409 33.9656 408.737 34.4344 408.268C34.9033 407.799 35.1667 407.163 35.1667 406.5V402.333C35.1667 401.67 34.9033 401.034 34.4344 400.566C33.9656 400.097 33.3297 399.833 32.6667 399.833H30.2042C30.3649 398.096 31.0175 396.44 32.0857 395.06C33.1538 393.68 34.5931 392.633 36.2349 392.042C37.8767 391.451 39.653 391.34 41.3556 391.723C43.0582 392.105 44.6165 392.965 45.8479 394.201C47.353 395.714 48.2788 397.707 48.4635 399.833H46C45.337 399.833 44.7011 400.097 44.2322 400.566C43.7634 401.034 43.5 401.67 43.5 402.333V406.5C43.5 407.163 43.7634 407.799 44.2322 408.268C44.7011 408.737 45.337 409 46 409H48.5C48.5 409.663 48.2366 410.299 47.7678 410.768C47.2989 411.237 46.663 411.5 46 411.5H40.1667C39.9457 411.5 39.7337 411.588 39.5774 411.744C39.4211 411.9 39.3333 412.112 39.3333 412.333C39.3333 412.554 39.4211 412.766 39.5774 412.923C39.7337 413.079 39.9457 413.167 40.1667 413.167H46C47.1051 413.167 48.1649 412.728 48.9463 411.946C49.7277 411.165 50.1667 410.105 50.1667 409V400.667C50.1721 399.25 49.8978 397.845 49.3596 396.534C48.8214 395.223 48.0298 394.032 47.0302 393.027ZM32.6667 401.5C32.8877 401.5 33.0996 401.588 33.2559 401.744C33.4122 401.9 33.5 402.112 33.5 402.333V406.5C33.5 406.721 33.4122 406.933 33.2559 407.089C33.0996 407.246 32.8877 407.333 32.6667 407.333H31C30.779 407.333 30.567 407.246 30.4107 407.089C30.2545 406.933 30.1667 406.721 30.1667 406.5V401.5H32.6667ZM46 407.333C45.779 407.333 45.567 407.246 45.4107 407.089C45.2545 406.933 45.1667 406.721 45.1667 406.5V402.333C45.1667 402.112 45.2545 401.9 45.4107 401.744C45.567 401.588 45.779 401.5 46 401.5H48.5V407.333H46Z" fill="#0E0E0E"/>
</g>
<g filter="url(#filter0_d_1404_5733)">
<rect x="22.334" y="440" width="34" height="37" rx="3" fill="url(#paint0_linear_1404_5733)" shape-rendering="crispEdges"/>
<path d="M37.0501 451.274L37.7276 453.156C38.4803 455.244 40.1247 456.888 42.213 457.641L44.0946 458.319C44.2642 458.38 44.2642 458.621 44.0946 458.681L42.213 459.359C40.1247 460.112 38.4803 461.756 37.7276 463.844L37.0501 465.726C36.9885 465.895 36.748 465.895 36.6873 465.726L36.0098 463.844C35.2571 461.756 33.6127 460.112 31.5244 459.359L29.6428 458.681C29.4732 458.62 29.4732 458.379 29.6428 458.319L31.5244 457.641C33.6127 456.888 35.2571 455.244 36.0098 453.156L36.6873 451.274C36.748 451.104 36.9885 451.104 37.0501 451.274Z" fill="url(#paint1_linear_1404_5733)"/>
<path d="M45.519 446.752L45.8624 447.705C46.2438 448.762 47.0765 449.595 48.1338 449.976L49.0864 450.32C49.1724 450.351 49.1724 450.472 49.0864 450.504L48.1338 450.847C47.0765 451.228 46.2438 452.061 45.8624 453.118L45.519 454.071C45.4878 454.157 45.3663 454.157 45.335 454.071L44.9916 453.118C44.6103 452.061 43.7775 451.228 42.7203 450.847L41.7677 450.504C41.6816 450.472 41.6816 450.351 41.7677 450.32L42.7203 449.976C43.7775 449.595 44.6103 448.762 44.9916 447.705L45.335 446.752C45.3663 446.665 45.4886 446.665 45.519 446.752Z" fill="url(#paint2_linear_1404_5733)"/>
<path d="M45.519 462.93L45.8624 463.882C46.2438 464.94 47.0765 465.772 48.1338 466.154L49.0864 466.497C49.1724 466.528 49.1724 466.65 49.0864 466.681L48.1338 467.024C47.0765 467.406 46.2438 468.239 45.8624 469.296L45.519 470.248C45.4878 470.335 45.3663 470.335 45.335 470.248L44.9916 469.296C44.6103 468.239 43.7775 467.406 42.7203 467.024L41.7677 466.681C41.6816 466.65 41.6816 466.528 41.7677 466.497L42.7203 466.154C43.7775 465.772 44.6103 464.94 44.9916 463.882L45.335 462.93C45.3663 462.844 45.4886 462.844 45.519 462.93Z" fill="url(#paint3_linear_1404_5733)"/>
</g>
<defs>
<filter id="filter0_d_1404_5733" x="0.333984" y="418" width="78" height="81" filterUnits="userSpaceOnUse" color-interpolation-filters="sRGB">
<feFlood flood-opacity="0" result="BackgroundImageFix"/>
<feColorMatrix in="SourceAlpha" type="matrix" values="0 0 0 0 0 0 0 0 0 0 0 0 0 0 0 0 0 0 127 0" result="hardAlpha"/>
<feOffset/>
<feGaussianBlur stdDeviation="11"/>
<feComposite in2="hardAlpha" operator="out"/>
<feColorMatrix type="matrix" values="0 0 0 0 0.592157 0 0 0 0 0.278431 0 0 0 0 1 0 0 0 0.7 0"/>
<feBlend mode="normal" in2="BackgroundImageFix" result="effect1_dropShadow_1404_5733"/>
<feBlend mode="normal" in="SourceGraphic" in2="effect1_dropShadow_1404_5733" result="shape"/>
</filter>
<linearGradient id="paint0_linear_1404_5733" x1="30.9194" y1="452.675" x2="46.97" y2="476.31" gradientUnits="userSpaceOnUse">
<stop stop-color="#F07306" stop-opacity="0.79"/>
<stop offset="1" stop-color="white" stop-opacity="0"/>
</linearGradient>
<linearGradient id="paint1_linear_1404_5733" x1="44.2218" y1="451.146" x2="26.5701" y2="457.057" gradientUnits="userSpaceOnUse">
<stop stop-color="#451B05"/>
<stop offset="0.546408" stop-color="#F07306"/>
<stop offset="1" stop-color="#451B05"/>
</linearGradient>
<linearGradient id="paint2_linear_1404_5733" x1="49.1509" y1="446.687" x2="40.2113" y2="449.681" gradientUnits="userSpaceOnUse">
<stop stop-color="#451B05"/>
<stop offset="0.546408" stop-color="#F07306"/>
<stop offset="1" stop-color="#451B05"/>
</linearGradient>
<linearGradient id="paint3_linear_1404_5733" x1="49.1509" y1="462.865" x2="40.2115" y2="465.859" gradientUnits="userSpaceOnUse">
<stop stop-color="#451B05"/>
<stop offset="0.546408" stop-color="#F07306"/>
<stop offset="1" stop-color="#451B05"/>
</linearGradient>
<clipPath id="clip0_1404_5733">
<rect width="26.6667" height="26.6667" fill="white" transform="translate(26 387.333)"/>
</clipPath>
</defs>
</svg>
