<svg width="219" height="222" viewBox="0 0 219 222" fill="none" xmlns="http://www.w3.org/2000/svg">
<g filter="url(#filter0_d_46_187)">
<rect x="5" width="209" height="233.359" rx="12" fill="white" shape-rendering="crispEdges"/>
<path d="M40.6175 34V32.8704H42.4339V24.4445H40.6175V23.315H45.4715V24.4445H43.6398V32.8704H45.4715V34H40.6175ZM47.5363 34V25.9862H48.6964V27.6958L48.4674 27.8332C48.5793 27.477 48.7829 27.1514 49.078 26.8563C49.3731 26.5612 49.7293 26.322 50.1465 26.1389C50.5637 25.9455 50.9962 25.8488 51.4439 25.8488C52.0443 25.8488 52.5481 25.9659 52.9551 26.1999C53.3723 26.4238 53.6878 26.7749 53.9015 27.2532C54.1152 27.7314 54.2221 28.3369 54.2221 29.0696V34H53.062V29.1459C53.062 28.627 52.9856 28.1996 52.833 27.8637C52.6905 27.5279 52.4717 27.2837 52.1766 27.131C51.8917 26.9784 51.5304 26.9072 51.0929 26.9173C50.7469 26.9173 50.4263 26.9733 50.1312 27.0853C49.8463 27.1972 49.597 27.3498 49.3833 27.5432C49.1696 27.7264 49.0017 27.935 48.8795 28.169C48.7574 28.3929 48.6964 28.6168 48.6964 28.8407V34H48.1316C48.04 34 47.9433 34 47.8416 34C47.7398 34 47.638 34 47.5363 34ZM59.7195 34.1526C58.9766 34.1526 58.3152 33.9746 57.7351 33.6184C57.1652 33.252 56.7124 32.7585 56.3766 32.1378C56.0408 31.517 55.8729 30.8098 55.8729 30.016C55.8729 29.2121 56.0408 28.4998 56.3766 27.879C56.7124 27.2481 57.1652 26.7545 57.7351 26.3984C58.3152 26.032 58.9614 25.8488 59.6737 25.8488C60.0706 25.8488 60.4573 25.915 60.8338 26.0473C61.2103 26.1796 61.5461 26.3627 61.8412 26.5968C62.1465 26.8207 62.3907 27.0751 62.5739 27.36C62.7571 27.6449 62.8588 27.9401 62.8792 28.2453H62.5586V22.7044H63.7187V34H62.5586V31.8477L62.8029 31.8325C62.7723 32.1378 62.6655 32.4278 62.4823 32.7025C62.2992 32.9773 62.0651 33.2266 61.7802 33.4505C61.5054 33.6642 61.1899 33.8372 60.8338 33.9695C60.4776 34.0916 60.1062 34.1526 59.7195 34.1526ZM59.8569 33.1299C60.386 33.1299 60.8541 32.9976 61.2612 32.7331C61.6784 32.4583 62.004 32.0869 62.2381 31.6188C62.4721 31.1507 62.5892 30.6113 62.5892 30.0007C62.5892 29.3902 62.4721 28.8508 62.2381 28.3827C62.004 27.9146 61.6784 27.5432 61.2612 27.2684C60.8541 26.9937 60.3809 26.8563 59.8416 26.8563C59.3023 26.8563 58.8189 26.9937 58.3915 27.2684C57.9743 27.5432 57.6435 27.9197 57.3993 28.398C57.1652 28.8661 57.0482 29.4054 57.0482 30.016C57.0482 30.6062 57.1652 31.1405 57.3993 31.6188C57.6435 32.0869 57.9743 32.4583 58.3915 32.7331C58.8189 32.9976 59.3073 33.1299 59.8569 33.1299ZM68.9796 34.1526C68.3893 34.1526 67.8805 34.0305 67.4531 33.7863C67.0257 33.5319 66.695 33.1706 66.4609 32.7025C66.2371 32.2242 66.1251 31.6391 66.1251 30.9471V25.9862H67.2852V30.6571C67.2852 31.461 67.4684 32.0767 67.8347 32.5041C68.2113 32.9213 68.7353 33.1299 69.407 33.1299C69.7326 33.1299 70.0277 33.074 70.2923 32.962C70.5671 32.8399 70.8062 32.6822 71.0097 32.4888C71.2132 32.2955 71.371 32.0818 71.4829 31.8477C71.605 31.6035 71.6661 31.3593 71.6661 31.115V25.9862H72.8262V34H71.6813L71.6661 32.2599L71.8951 32.1378C71.7729 32.5041 71.5643 32.845 71.2692 33.1605C70.9843 33.4657 70.6434 33.71 70.2465 33.8931C69.8598 34.0661 69.4375 34.1526 68.9796 34.1526ZM77.6956 34.1526C77.024 34.1526 76.4185 34.0356 75.8792 33.8016C75.3398 33.5573 74.9022 33.2113 74.5664 32.7636L75.3602 32.0767C75.6553 32.443 76.0064 32.7178 76.4134 32.901C76.8205 33.0841 77.2835 33.1757 77.8025 33.1757C78.067 33.1757 78.3011 33.1452 78.5046 33.0841C78.7082 33.0129 78.8811 32.9213 79.0236 32.8094C79.1661 32.6873 79.2678 32.5499 79.3289 32.3972C79.4001 32.2344 79.4358 32.0614 79.4358 31.8783C79.4358 31.5424 79.3035 31.2728 79.0389 31.0692C78.8964 30.9675 78.698 30.8708 78.4436 30.7792C78.1993 30.6775 77.8991 30.5808 77.543 30.4892C76.9935 30.3569 76.5304 30.2043 76.1539 30.0313C75.7876 29.8481 75.4976 29.6395 75.2839 29.4054C75.121 29.2223 74.9989 29.0238 74.9175 28.8101C74.8361 28.5964 74.7954 28.3522 74.7954 28.0774C74.7954 27.6399 74.9175 27.2532 75.1617 26.9173C75.406 26.5815 75.7367 26.322 76.1539 26.1389C76.5813 25.9455 77.0647 25.8488 77.604 25.8488C77.9704 25.8488 78.3316 25.8997 78.6878 26.0015C79.0541 26.1033 79.39 26.2508 79.6952 26.4442C80.0005 26.6375 80.2651 26.8716 80.489 27.1463L79.8021 27.879C79.5986 27.6653 79.3747 27.4821 79.1305 27.3295C78.8964 27.1667 78.6522 27.0446 78.3978 26.9631C78.1434 26.8716 77.8941 26.8258 77.6498 26.8258C77.3852 26.8258 77.1461 26.8563 76.9324 26.9173C76.7187 26.9682 76.5355 27.0496 76.3829 27.1616C76.2404 27.2633 76.1336 27.3905 76.0623 27.5432C75.9911 27.6857 75.9555 27.8536 75.9555 28.0469C75.9657 28.1894 76.0013 28.3318 76.0623 28.4743C76.1234 28.6066 76.2099 28.7185 76.3218 28.8101C76.4643 28.9221 76.6678 29.034 76.9324 29.1459C77.197 29.2477 77.5175 29.3393 77.8941 29.4207C78.3825 29.5428 78.7946 29.6802 79.1305 29.8328C79.4663 29.9753 79.736 30.1483 79.9395 30.3518C80.1532 30.535 80.3058 30.7487 80.3974 30.9929C80.489 31.2372 80.5348 31.517 80.5348 31.8325C80.5348 32.2904 80.4127 32.6974 80.1684 33.0536C79.9242 33.3996 79.5884 33.6693 79.161 33.8626C78.7336 34.056 78.2451 34.1526 77.6956 34.1526ZM83.4581 34V23.9408H84.6182V34H83.4581ZM81.6112 27.1158V25.9862H86.6179V27.1158H81.6112ZM88.0076 34V25.9862H89.1677L89.183 28.3064L89.0456 27.9095C89.1474 27.5432 89.3204 27.2023 89.5646 26.8868C89.819 26.5714 90.1243 26.322 90.4804 26.1389C90.8366 25.9455 91.2284 25.8488 91.6558 25.8488C91.8288 25.8488 91.9916 25.8641 92.1443 25.8946C92.2969 25.915 92.4241 25.9455 92.5259 25.9862L92.2206 27.2532C92.0781 27.2023 91.9306 27.1616 91.7779 27.131C91.6354 27.0903 91.4981 27.07 91.3658 27.07C91.0503 27.07 90.7552 27.1361 90.4804 27.2684C90.2159 27.3905 89.9869 27.5585 89.7936 27.7722C89.6002 27.9859 89.4476 28.2301 89.3356 28.5048C89.2339 28.7694 89.183 29.0442 89.183 29.3291V34H88.0076ZM93.9465 34V25.9862H95.1066V34H93.9465ZM94.5113 24.1087C94.2467 24.1087 94.0381 24.0375 93.8855 23.895C93.743 23.7424 93.6718 23.5439 93.6718 23.2997C93.6718 23.0555 93.743 22.8621 93.8855 22.7197C94.0381 22.567 94.2467 22.4907 94.5113 22.4907C94.7759 22.4907 94.9794 22.5619 95.1219 22.7044C95.2745 22.8469 95.3508 23.0453 95.3508 23.2997C95.3508 23.5338 95.2796 23.7271 95.1371 23.8797C94.9947 24.0324 94.7861 24.1087 94.5113 24.1087ZM101.151 34.1526C100.347 34.1526 99.635 33.9796 99.0143 33.6337C98.3935 33.2775 97.9051 32.789 97.5489 32.1683C97.2029 31.5475 97.0299 30.8403 97.0299 30.0465C97.0299 29.4258 97.1266 28.861 97.3199 28.3522C97.5235 27.8332 97.7982 27.3905 98.1442 27.0242C98.5004 26.6477 98.9227 26.3577 99.4112 26.1541C99.8996 25.9506 100.434 25.8488 101.014 25.8488C101.523 25.8488 101.996 25.9404 102.433 26.1236C102.881 26.3068 103.268 26.5714 103.594 26.9173C103.919 27.2532 104.169 27.6551 104.342 28.1232C104.515 28.5812 104.591 29.09 104.571 29.6497L104.555 30.2297H97.8695L97.6252 29.2833H103.594L103.38 29.5428L103.395 29.1612C103.375 28.7236 103.253 28.3369 103.029 28.0011C102.805 27.6653 102.515 27.4007 102.159 27.2074C101.813 27.014 101.431 26.9173 101.014 26.9173C100.424 26.9173 99.9149 27.0446 99.4875 27.299C99.0601 27.5432 98.7344 27.8943 98.5106 28.3522C98.2969 28.8 98.1849 29.3393 98.1747 29.9702C98.1849 30.6011 98.3172 31.1507 98.5716 31.6188C98.826 32.0767 99.1822 32.4379 99.6401 32.7025C100.108 32.9569 100.648 33.0841 101.258 33.0841C101.696 33.0841 102.103 33.0129 102.479 32.8704C102.856 32.7178 103.237 32.4685 103.624 32.1225L104.204 32.9468C103.96 33.191 103.67 33.4047 103.334 33.5879C103.008 33.7609 102.657 33.8982 102.281 34C101.904 34.1018 101.528 34.1526 101.151 34.1526ZM108.925 34.1526C108.253 34.1526 107.648 34.0356 107.108 33.8016C106.569 33.5573 106.132 33.2113 105.796 32.7636L106.589 32.0767C106.885 32.443 107.236 32.7178 107.643 32.901C108.05 33.0841 108.513 33.1757 109.032 33.1757C109.296 33.1757 109.53 33.1452 109.734 33.0841C109.937 33.0129 110.11 32.9213 110.253 32.8094C110.395 32.6873 110.497 32.5499 110.558 32.3972C110.629 32.2344 110.665 32.0614 110.665 31.8783C110.665 31.5424 110.533 31.2728 110.268 31.0692C110.126 30.9675 109.927 30.8708 109.673 30.7792C109.429 30.6775 109.128 30.5808 108.772 30.4892C108.223 30.3569 107.76 30.2043 107.383 30.0313C107.017 29.8481 106.727 29.6395 106.513 29.4054C106.35 29.2223 106.228 29.0238 106.147 28.8101C106.065 28.5964 106.025 28.3522 106.025 28.0774C106.025 27.6399 106.147 27.2532 106.391 26.9173C106.635 26.5815 106.966 26.322 107.383 26.1389C107.811 25.9455 108.294 25.8488 108.833 25.8488C109.2 25.8488 109.561 25.8997 109.917 26.0015C110.283 26.1033 110.619 26.2508 110.925 26.4442C111.23 26.6375 111.494 26.8716 111.718 27.1463L111.031 27.879C110.828 27.6653 110.604 27.4821 110.36 27.3295C110.126 27.1667 109.881 27.0446 109.627 26.9631C109.373 26.8716 109.123 26.8258 108.879 26.8258C108.615 26.8258 108.375 26.8563 108.162 26.9173C107.948 26.9682 107.765 27.0496 107.612 27.1616C107.47 27.2633 107.363 27.3905 107.292 27.5432C107.22 27.6857 107.185 27.8536 107.185 28.0469C107.195 28.1894 107.231 28.3318 107.292 28.4743C107.353 28.6066 107.439 28.7185 107.551 28.8101C107.694 28.9221 107.897 29.034 108.162 29.1459C108.426 29.2477 108.747 29.3393 109.123 29.4207C109.612 29.5428 110.024 29.6802 110.36 29.8328C110.696 29.9753 110.965 30.1483 111.169 30.3518C111.382 30.535 111.535 30.7487 111.627 30.9929C111.718 31.2372 111.764 31.517 111.764 31.8325C111.764 32.2904 111.642 32.6974 111.398 33.0536C111.153 33.3996 110.818 33.6693 110.39 33.8626C109.963 34.056 109.474 34.1526 108.925 34.1526ZM120.278 34V24.4751H117.195V23.315H124.629V24.4751H121.484V34H120.278ZM126.154 34V22.7044H127.314V27.6958L127.085 27.8332C127.197 27.477 127.4 27.1514 127.695 26.8563C128.001 26.551 128.357 26.3068 128.764 26.1236C129.181 25.9404 129.613 25.8488 130.061 25.8488C130.662 25.8488 131.165 25.9659 131.572 26.1999C131.99 26.4238 132.305 26.7749 132.519 27.2532C132.732 27.7314 132.839 28.3369 132.839 29.0696V34H131.679V29.1459C131.679 28.627 131.603 28.1996 131.45 27.8637C131.308 27.5279 131.089 27.2837 130.794 27.131C130.509 26.9784 130.148 26.9072 129.71 26.9173C129.364 26.9173 129.044 26.9733 128.748 27.0853C128.464 27.1972 128.214 27.3498 128.001 27.5432C127.787 27.7264 127.619 27.935 127.497 28.169C127.375 28.3929 127.314 28.6168 127.314 28.8407V34H126.749C126.657 34 126.561 34 126.459 34C126.357 34 126.255 34 126.154 34ZM140.031 34V28.6575C140.031 28.1385 139.848 27.7213 139.482 27.4058C139.115 27.0903 138.632 26.9326 138.031 26.9326C137.533 26.9326 137.08 27.0344 136.673 27.2379C136.266 27.4414 135.905 27.7467 135.589 28.1538L134.826 27.3905C135.284 26.8716 135.783 26.4849 136.322 26.2305C136.871 25.976 137.467 25.8488 138.108 25.8488C138.718 25.8488 139.248 25.9506 139.695 26.1541C140.143 26.3577 140.484 26.6528 140.718 27.0395C140.962 27.4262 141.084 27.8943 141.084 28.4438V34H140.031ZM137.284 34.1526C136.765 34.1526 136.302 34.0509 135.894 33.8474C135.487 33.6438 135.162 33.364 134.918 33.0078C134.683 32.6415 134.566 32.2141 134.566 31.7256C134.566 31.3287 134.638 30.9777 134.78 30.6724C134.933 30.3671 135.152 30.1127 135.437 29.9092C135.721 29.7056 136.083 29.553 136.52 29.4512C136.958 29.3393 137.457 29.2833 138.016 29.2833H140.55L140.458 30.245H137.864C137.507 30.245 137.192 30.2755 136.917 30.3366C136.653 30.3976 136.424 30.4943 136.23 30.6266C136.047 30.7487 135.905 30.9013 135.803 31.0845C135.711 31.2575 135.665 31.4661 135.665 31.7103C135.665 31.9953 135.737 32.2497 135.879 32.4736C136.032 32.6873 136.23 32.8552 136.475 32.9773C136.729 33.0892 137.014 33.1452 137.329 33.1452C137.747 33.1452 138.138 33.074 138.505 32.9315C138.871 32.7789 139.197 32.5753 139.482 32.3209C139.777 32.0563 140.011 31.7612 140.184 31.4356L140.504 32.1683C140.28 32.555 140.001 32.901 139.665 33.2063C139.329 33.5014 138.958 33.7354 138.55 33.9084C138.154 34.0712 137.731 34.1526 137.284 34.1526ZM144.277 34V23.9408H145.437V34H144.277ZM142.43 27.1158V25.9862H147.437V27.1158H142.43ZM157.653 34.0916C156.849 34.0916 156.132 33.9135 155.501 33.5573C154.87 33.191 154.372 32.6924 154.005 32.0614C153.649 31.4203 153.471 30.6978 153.471 29.8939V23.2997H154.677V29.7565C154.677 30.3569 154.809 30.8963 155.074 31.3745C155.338 31.8528 155.694 32.2344 156.142 32.5194C156.6 32.7941 157.104 32.9315 157.653 32.9315C158.244 32.9315 158.768 32.7941 159.226 32.5194C159.694 32.2344 160.06 31.8528 160.325 31.3745C160.589 30.8963 160.722 30.3569 160.722 29.7565V23.2997H161.882V29.8939C161.882 30.6978 161.698 31.4203 161.332 32.0614C160.966 32.6924 160.462 33.191 159.821 33.5573C159.19 33.9135 158.468 34.0916 157.653 34.0916ZM167.105 34.1526C166.434 34.1526 165.828 34.0356 165.289 33.8016C164.749 33.5573 164.312 33.2113 163.976 32.7636L164.77 32.0767C165.065 32.443 165.416 32.7178 165.823 32.901C166.23 33.0841 166.693 33.1757 167.212 33.1757C167.477 33.1757 167.711 33.1452 167.914 33.0841C168.118 33.0129 168.291 32.9213 168.433 32.8094C168.576 32.6873 168.677 32.5499 168.739 32.3972C168.81 32.2344 168.845 32.0614 168.845 31.8783C168.845 31.5424 168.713 31.2728 168.449 31.0692C168.306 30.9675 168.108 30.8708 167.853 30.7792C167.609 30.6775 167.309 30.5808 166.953 30.4892C166.403 30.3569 165.94 30.2043 165.564 30.0313C165.197 29.8481 164.907 29.6395 164.693 29.4054C164.531 29.2223 164.409 29.0238 164.327 28.8101C164.246 28.5964 164.205 28.3522 164.205 28.0774C164.205 27.6399 164.327 27.2532 164.571 26.9173C164.816 26.5815 165.146 26.322 165.564 26.1389C165.991 25.9455 166.474 25.8488 167.014 25.8488C167.38 25.8488 167.741 25.8997 168.097 26.0015C168.464 26.1033 168.8 26.2508 169.105 26.4442C169.41 26.6375 169.675 26.8716 169.899 27.1463L169.212 27.879C169.008 27.6653 168.784 27.4821 168.54 27.3295C168.306 27.1667 168.062 27.0446 167.807 26.9631C167.553 26.8716 167.304 26.8258 167.059 26.8258C166.795 26.8258 166.556 26.8563 166.342 26.9173C166.128 26.9682 165.945 27.0496 165.793 27.1616C165.65 27.2633 165.543 27.3905 165.472 27.5432C165.401 27.6857 165.365 27.8536 165.365 28.0469C165.375 28.1894 165.411 28.3318 165.472 28.4743C165.533 28.6066 165.62 28.7185 165.731 28.8101C165.874 28.9221 166.077 29.034 166.342 29.1459C166.607 29.2477 166.927 29.3393 167.304 29.4207C167.792 29.5428 168.204 29.6802 168.54 29.8328C168.876 29.9753 169.146 30.1483 169.349 30.3518C169.563 30.535 169.715 30.7487 169.807 30.9929C169.899 31.2372 169.944 31.517 169.944 31.8325C169.944 32.2904 169.822 32.6974 169.578 33.0536C169.334 33.3996 168.998 33.6693 168.571 33.8626C168.143 34.056 167.655 34.1526 167.105 34.1526ZM175.371 34.1526C174.567 34.1526 173.855 33.9796 173.234 33.6337C172.613 33.2775 172.125 32.789 171.769 32.1683C171.423 31.5475 171.25 30.8403 171.25 30.0465C171.25 29.4258 171.346 28.861 171.54 28.3522C171.743 27.8332 172.018 27.3905 172.364 27.0242C172.72 26.6477 173.143 26.3577 173.631 26.1541C174.119 25.9506 174.654 25.8488 175.234 25.8488C175.743 25.8488 176.216 25.9404 176.653 26.1236C177.101 26.3068 177.488 26.5714 177.813 26.9173C178.139 27.2532 178.388 27.6551 178.561 28.1232C178.734 28.5812 178.811 29.09 178.79 29.6497L178.775 30.2297H172.089L171.845 29.2833H177.813L177.6 29.5428L177.615 29.1612C177.595 28.7236 177.473 28.3369 177.249 28.0011C177.025 27.6653 176.735 27.4007 176.379 27.2074C176.033 27.014 175.651 26.9173 175.234 26.9173C174.644 26.9173 174.135 27.0446 173.707 27.299C173.28 27.5432 172.954 27.8943 172.73 28.3522C172.517 28.8 172.405 29.3393 172.395 29.9702C172.405 30.6011 172.537 31.1507 172.791 31.6188C173.046 32.0767 173.402 32.4379 173.86 32.7025C174.328 32.9569 174.867 33.0841 175.478 33.0841C175.916 33.0841 176.323 33.0129 176.699 32.8704C177.076 32.7178 177.457 32.4685 177.844 32.1225L178.424 32.9468C178.18 33.191 177.89 33.4047 177.554 33.5879C177.228 33.7609 176.877 33.8982 176.501 34C176.124 34.1018 175.748 34.1526 175.371 34.1526ZM49.7162 54.1526C48.8308 54.1526 48.0523 53.9847 47.3807 53.6489C46.7193 53.3029 46.1596 52.7992 45.7016 52.1378L46.5564 51.1914C47.0144 51.863 47.4977 52.3413 48.0066 52.6262C48.5255 52.9111 49.1361 53.0536 49.8383 53.0536C50.286 53.0536 50.688 52.9773 51.0442 52.8246C51.4105 52.672 51.7005 52.4634 51.9142 52.1988C52.1279 51.9342 52.2348 51.634 52.2348 51.2982C52.2348 51.0743 52.1941 50.8708 52.1127 50.6876C52.0414 50.5045 51.9244 50.3416 51.7616 50.1992C51.6089 50.0567 51.4156 49.9244 51.1815 49.8023C50.9475 49.6802 50.6778 49.5733 50.3725 49.4818C50.0774 49.38 49.7416 49.2833 49.3651 49.1917C48.8359 49.0798 48.3729 48.9322 47.976 48.7491C47.5893 48.5659 47.2586 48.3471 46.9838 48.0927C46.7091 47.8383 46.5056 47.5483 46.3733 47.2226C46.241 46.8868 46.1748 46.5103 46.1748 46.0931C46.1748 45.5232 46.3326 45.0195 46.648 44.5819C46.9737 44.1443 47.4062 43.7983 47.9455 43.5439C48.495 43.2895 49.1107 43.1623 49.7925 43.1623C50.6168 43.1623 51.3189 43.315 51.899 43.6203C52.4892 43.9255 52.9624 44.358 53.3185 44.9177L52.4637 45.7573C52.1381 45.279 51.7514 44.9126 51.3036 44.6582C50.8661 44.3936 50.3522 44.2614 49.762 44.2614C49.304 44.2614 48.897 44.3377 48.5408 44.4903C48.1846 44.643 47.9048 44.8567 47.7013 45.1314C47.4977 45.396 47.396 45.7064 47.396 46.0625C47.396 46.317 47.4418 46.551 47.5334 46.7647C47.6351 46.9682 47.7827 47.1463 47.976 47.299C48.1694 47.4516 48.4187 47.589 48.724 47.7111C49.0293 47.8332 49.3905 47.9401 49.8077 48.0316C50.3776 48.1639 50.8864 48.3217 51.3342 48.5048C51.7921 48.688 52.1788 48.9017 52.4943 49.1459C52.8097 49.3902 53.0489 49.6649 53.2117 49.9702C53.3745 50.2755 53.4559 50.6215 53.4559 51.0082C53.4559 51.6391 53.2982 52.1937 52.9827 52.672C52.6774 53.1401 52.2449 53.5065 51.6853 53.771C51.1256 54.0254 50.4692 54.1526 49.7162 54.1526ZM58.9582 54.1526C58.1543 54.1526 57.442 53.9796 56.8212 53.6337C56.2005 53.2775 55.712 52.789 55.3559 52.1683C55.0099 51.5475 54.8369 50.8403 54.8369 50.0465C54.8369 49.4258 54.9335 48.861 55.1269 48.3522C55.3304 47.8332 55.6052 47.3905 55.9512 47.0242C56.3073 46.6477 56.7296 46.3577 57.2181 46.1541C57.7066 45.9506 58.2408 45.8488 58.8209 45.8488C59.3297 45.8488 59.8029 45.9404 60.2404 46.1236C60.6882 46.3068 61.0749 46.5714 61.4005 46.9173C61.7262 47.2532 61.9755 47.6551 62.1485 48.1232C62.3215 48.5812 62.3978 49.09 62.3774 49.6497L62.3622 50.2297H55.6764L55.4322 49.2833H61.4005L61.1868 49.5428L61.2021 49.1612C61.1817 48.7236 61.0596 48.3369 60.8357 48.0011C60.6119 47.6653 60.3218 47.4007 59.9657 47.2074C59.6197 47.014 59.2381 46.9173 58.8209 46.9173C58.2306 46.9173 57.7218 47.0446 57.2944 47.299C56.867 47.5432 56.5414 47.8943 56.3175 48.3522C56.1038 48.8 55.9919 49.3393 55.9817 49.9702C55.9919 50.6011 56.1242 51.1507 56.3786 51.6188C56.633 52.0767 56.9891 52.4379 57.4471 52.7025C57.9152 52.9569 58.4545 53.0841 59.0651 53.0841C59.5027 53.0841 59.9097 53.0129 60.2862 52.8704C60.6628 52.7178 61.0444 52.4685 61.4311 52.1225L62.0111 52.9468C61.7669 53.191 61.4769 53.4047 61.141 53.5879C60.8154 53.7609 60.4643 53.8982 60.0878 54C59.7113 54.1018 59.3348 54.1526 58.9582 54.1526ZM67.5256 54.1526C66.7624 54.1526 66.0806 53.9695 65.4802 53.6031C64.8899 53.2368 64.4218 52.7432 64.0758 52.1225C63.74 51.4916 63.5721 50.7792 63.5721 49.9855C63.5721 49.2019 63.74 48.4998 64.0758 47.879C64.4218 47.2481 64.8899 46.7545 65.4802 46.3984C66.0806 46.032 66.7624 45.8488 67.5256 45.8488C68.2176 45.8488 68.8434 45.9862 69.4031 46.261C69.9628 46.5256 70.4055 46.897 70.7311 47.3753L70.0595 48.169C69.8763 47.9248 69.6524 47.7111 69.3878 47.5279C69.1232 47.3346 68.8383 47.187 68.533 47.0853C68.2277 46.9733 67.9225 46.9173 67.6172 46.9173C67.0575 46.9173 66.5538 47.0496 66.106 47.3142C65.6684 47.5788 65.3224 47.9451 65.068 48.4133C64.8136 48.8712 64.6864 49.3953 64.6864 49.9855C64.6864 50.5757 64.8136 51.1049 65.068 51.573C65.3326 52.0411 65.6888 52.4125 66.1365 52.6873C66.5843 52.962 67.0829 53.0994 67.6324 53.0994C67.9377 53.0994 68.2328 53.0536 68.5178 52.962C68.8129 52.8603 69.0876 52.7178 69.342 52.5346C69.5964 52.3515 69.8356 52.1276 70.0595 51.863L70.7158 52.672C70.38 53.1096 69.9221 53.4657 69.342 53.7405C68.7722 54.0153 68.1667 54.1526 67.5256 54.1526ZM75.0391 54.1526C74.4489 54.1526 73.9401 54.0305 73.5127 53.7863C73.0853 53.5319 72.7545 53.1706 72.5205 52.7025C72.2966 52.2242 72.1847 51.6391 72.1847 50.9471V45.9862H73.3447V50.6571C73.3447 51.461 73.5279 52.0767 73.8943 52.5041C74.2708 52.9213 74.7949 53.1299 75.4665 53.1299C75.7921 53.1299 76.0872 53.074 76.3518 52.962C76.6266 52.8399 76.8657 52.6822 77.0692 52.4888C77.2728 52.2955 77.4305 52.0818 77.5424 51.8477C77.6646 51.6035 77.7256 51.3593 77.7256 51.115V45.9862H78.8857V54H77.7409L77.7256 52.2599L77.9546 52.1378C77.8325 52.5041 77.6239 52.845 77.3287 53.1605C77.0438 53.4657 76.7029 53.71 76.306 53.8931C75.9193 54.0661 75.497 54.1526 75.0391 54.1526ZM81.0686 54V45.9862H82.2287L82.244 48.3064L82.1066 47.9095C82.2084 47.5432 82.3814 47.2023 82.6256 46.8868C82.88 46.5714 83.1853 46.322 83.5414 46.1389C83.8976 45.9455 84.2894 45.8488 84.7168 45.8488C84.8898 45.8488 85.0526 45.8641 85.2053 45.8946C85.3579 45.915 85.4851 45.9455 85.5869 45.9862L85.2816 47.2532C85.1391 47.2023 84.9916 47.1616 84.8389 47.131C84.6964 47.0903 84.5591 47.07 84.4268 47.07C84.1113 47.07 83.8162 47.1361 83.5414 47.2684C83.2769 47.3905 83.0479 47.5585 82.8546 47.7722C82.6612 47.9859 82.5086 48.2301 82.3966 48.5048C82.2949 48.7694 82.244 49.0442 82.244 49.3291V54H81.0686ZM90.0534 54.1526C89.2494 54.1526 88.5371 53.9796 87.9163 53.6337C87.2956 53.2775 86.8071 52.789 86.451 52.1683C86.105 51.5475 85.932 50.8403 85.932 50.0465C85.932 49.4258 86.0287 48.861 86.222 48.3522C86.4255 47.8332 86.7003 47.3905 87.0463 47.0242C87.4024 46.6477 87.8248 46.3577 88.3132 46.1541C88.8017 45.9506 89.3359 45.8488 89.916 45.8488C90.4248 45.8488 90.898 45.9404 91.3356 46.1236C91.7833 46.3068 92.17 46.5714 92.4956 46.9173C92.8213 47.2532 93.0706 47.6551 93.2436 48.1232C93.4166 48.5812 93.4929 49.09 93.4726 49.6497L93.4573 50.2297H86.7715L86.5273 49.2833H92.4956L92.2819 49.5428L92.2972 49.1612C92.2769 48.7236 92.1547 48.3369 91.9309 48.0011C91.707 47.6653 91.417 47.4007 91.0608 47.2074C90.7148 47.014 90.3332 46.9173 89.916 46.9173C89.3258 46.9173 88.8169 47.0446 88.3895 47.299C87.9621 47.5432 87.6365 47.8943 87.4126 48.3522C87.1989 48.8 87.087 49.3393 87.0768 49.9702C87.087 50.6011 87.2193 51.1507 87.4737 51.6188C87.7281 52.0767 88.0843 52.4379 88.5422 52.7025C89.0103 52.9569 89.5496 53.0841 90.1602 53.0841C90.5978 53.0841 91.0048 53.0129 91.3813 52.8704C91.7579 52.7178 92.1395 52.4685 92.5262 52.1225L93.1062 52.9468C92.862 53.191 92.572 53.4047 92.2362 53.5879C91.9105 53.7609 91.5594 53.8982 91.1829 54C90.8064 54.1018 90.4299 54.1526 90.0534 54.1526ZM103.067 54.1526C102.181 54.1526 101.403 53.9847 100.731 53.6489C100.07 53.3029 99.5102 52.7992 99.0523 52.1378L99.9071 51.1914C100.365 51.863 100.848 52.3413 101.357 52.6262C101.876 52.9111 102.487 53.0536 103.189 53.0536C103.637 53.0536 104.039 52.9773 104.395 52.8246C104.761 52.672 105.051 52.4634 105.265 52.1988C105.479 51.9342 105.585 51.634 105.585 51.2982C105.585 51.0743 105.545 50.8708 105.463 50.6876C105.392 50.5045 105.275 50.3416 105.112 50.1992C104.96 50.0567 104.766 49.9244 104.532 49.8023C104.298 49.6802 104.028 49.5733 103.723 49.4818C103.428 49.38 103.092 49.2833 102.716 49.1917C102.187 49.0798 101.724 48.9322 101.327 48.7491C100.94 48.5659 100.609 48.3471 100.334 48.0927C100.06 47.8383 99.8562 47.5483 99.7239 47.2226C99.5916 46.8868 99.5255 46.5103 99.5255 46.0931C99.5255 45.5232 99.6832 45.0195 99.9987 44.5819C100.324 44.1443 100.757 43.7983 101.296 43.5439C101.846 43.2895 102.461 43.1623 103.143 43.1623C103.967 43.1623 104.67 43.315 105.25 43.6203C105.84 43.9255 106.313 44.358 106.669 44.9177L105.814 45.7573C105.489 45.279 105.102 44.9126 104.654 44.6582C104.217 44.3936 103.703 44.2614 103.113 44.2614C102.655 44.2614 102.248 44.3377 101.891 44.4903C101.535 44.643 101.255 44.8567 101.052 45.1314C100.848 45.396 100.747 45.7064 100.747 46.0625C100.747 46.317 100.792 46.551 100.884 46.7647C100.986 46.9682 101.133 47.1463 101.327 47.299C101.52 47.4516 101.769 47.589 102.075 47.7111C102.38 47.8332 102.741 47.9401 103.158 48.0316C103.728 48.1639 104.237 48.3217 104.685 48.5048C105.143 48.688 105.529 48.9017 105.845 49.1459C106.16 49.3902 106.4 49.6649 106.562 49.9702C106.725 50.2755 106.807 50.6215 106.807 51.0082C106.807 51.6391 106.649 52.1937 106.333 52.672C106.028 53.1401 105.596 53.5065 105.036 53.771C104.476 54.0254 103.82 54.1526 103.067 54.1526ZM108.92 54V45.9862H110.08V54H108.92ZM109.485 44.1087C109.22 44.1087 109.012 44.0375 108.859 43.895C108.717 43.7424 108.645 43.5439 108.645 43.2997C108.645 43.0555 108.717 42.8621 108.859 42.7197C109.012 42.567 109.22 42.4907 109.485 42.4907C109.75 42.4907 109.953 42.5619 110.096 42.7044C110.248 42.8469 110.324 43.0453 110.324 43.2997C110.324 43.5338 110.253 43.7271 110.111 43.8797C109.968 44.0324 109.76 44.1087 109.485 44.1087ZM116.018 57.5566C115.448 57.5566 114.894 57.465 114.354 57.2818C113.825 57.0987 113.393 56.8544 113.057 56.5491L113.484 55.6333C113.79 55.8979 114.166 56.1116 114.614 56.2744C115.072 56.4372 115.535 56.5186 116.003 56.5186C116.573 56.5186 117.066 56.4067 117.483 56.1828C117.901 55.9589 118.226 55.6333 118.46 55.2059C118.694 54.7785 118.811 54.2595 118.811 53.6489V51.8935L118.964 51.9393C118.893 52.3362 118.705 52.7025 118.399 53.0383C118.104 53.3742 117.738 53.6438 117.3 53.8474C116.873 54.0509 116.42 54.1526 115.942 54.1526C115.189 54.1526 114.512 53.9746 113.912 53.6184C113.321 53.252 112.853 52.7585 112.507 52.1378C112.171 51.517 112.004 50.8098 112.004 50.016C112.004 49.2121 112.171 48.4998 112.507 47.879C112.853 47.2481 113.321 46.7545 113.912 46.3984C114.502 46.032 115.158 45.8488 115.881 45.8488C116.196 45.8488 116.501 45.8896 116.797 45.971C117.092 46.0524 117.366 46.1694 117.621 46.322C117.875 46.4645 118.104 46.6273 118.308 46.8105C118.511 46.9937 118.679 47.1921 118.811 47.4058C118.944 47.6195 119.03 47.8332 119.071 48.0469L118.811 48.1232L118.827 45.9862H119.972V53.5726C119.972 54.2035 119.875 54.7632 119.682 55.2517C119.498 55.7503 119.229 56.1675 118.873 56.5034C118.527 56.8493 118.109 57.1088 117.621 57.2818C117.143 57.465 116.608 57.5566 116.018 57.5566ZM116.049 53.0689C116.588 53.0689 117.066 52.9417 117.483 52.6873C117.911 52.4227 118.242 52.0614 118.476 51.6035C118.72 51.1354 118.842 50.6011 118.842 50.0007C118.842 49.4003 118.72 48.8712 118.476 48.4133C118.242 47.9451 117.911 47.5788 117.483 47.3142C117.066 47.0496 116.583 46.9173 116.033 46.9173C115.484 46.9173 114.99 47.0547 114.553 47.3295C114.125 47.5941 113.79 47.9604 113.545 48.4285C113.301 48.8864 113.179 49.4156 113.179 50.016C113.179 50.5961 113.301 51.1201 113.545 51.5882C113.79 52.0462 114.125 52.4074 114.553 52.672C114.99 52.9366 115.489 53.0689 116.049 53.0689ZM122.151 54V45.9862H123.311V47.6958L123.082 47.8332C123.194 47.477 123.398 47.1514 123.693 46.8563C123.988 46.5612 124.344 46.322 124.761 46.1389C125.179 45.9455 125.611 45.8488 126.059 45.8488C126.659 45.8488 127.163 45.9659 127.57 46.1999C127.987 46.4238 128.303 46.7749 128.516 47.2532C128.73 47.7314 128.837 48.3369 128.837 49.0696V54H127.677V49.1459C127.677 48.627 127.601 48.1996 127.448 47.8637C127.305 47.5279 127.087 47.2837 126.792 47.131C126.507 46.9784 126.145 46.9072 125.708 46.9173C125.362 46.9173 125.041 46.9733 124.746 47.0853C124.461 47.1972 124.212 47.3498 123.998 47.5432C123.784 47.7264 123.617 47.935 123.494 48.169C123.372 48.3929 123.311 48.6168 123.311 48.8407V54H122.746C122.655 54 122.558 54 122.456 54C122.355 54 122.253 54 122.151 54ZM136.029 54V48.6575C136.029 48.1385 135.846 47.7213 135.479 47.4058C135.113 47.0903 134.629 46.9326 134.029 46.9326C133.53 46.9326 133.078 47.0344 132.671 47.2379C132.263 47.4414 131.902 47.7467 131.587 48.1538L130.824 47.3905C131.281 46.8716 131.78 46.4849 132.319 46.2305C132.869 45.976 133.464 45.8488 134.105 45.8488C134.716 45.8488 135.245 45.9506 135.693 46.1541C136.141 46.3577 136.482 46.6528 136.716 47.0395C136.96 47.4262 137.082 47.8943 137.082 48.4438V54H136.029ZM133.281 54.1526C132.762 54.1526 132.299 54.0509 131.892 53.8474C131.485 53.6438 131.159 53.364 130.915 53.0078C130.681 52.6415 130.564 52.2141 130.564 51.7256C130.564 51.3287 130.635 50.9777 130.778 50.6724C130.93 50.3671 131.149 50.1127 131.434 49.9092C131.719 49.7056 132.08 49.553 132.518 49.4512C132.955 49.3393 133.454 49.2833 134.014 49.2833H136.548L136.456 50.245H133.861C133.505 50.245 133.19 50.2755 132.915 50.3366C132.65 50.3976 132.421 50.4943 132.228 50.6266C132.045 50.7487 131.902 50.9013 131.8 51.0845C131.709 51.2575 131.663 51.4661 131.663 51.7103C131.663 51.9953 131.734 52.2497 131.877 52.4736C132.029 52.6873 132.228 52.8552 132.472 52.9773C132.727 53.0892 133.011 53.1452 133.327 53.1452C133.744 53.1452 134.136 53.074 134.502 52.9315C134.869 52.7789 135.194 52.5753 135.479 52.3209C135.774 52.0563 136.008 51.7612 136.181 51.4356L136.502 52.1683C136.278 52.555 135.998 52.901 135.662 53.2063C135.327 53.5014 134.955 53.7354 134.548 53.9084C134.151 54.0712 133.729 54.1526 133.281 54.1526ZM140.275 54V43.9408H141.435V54H140.275ZM138.428 47.1158V45.9862H143.434V47.1158H138.428ZM147.694 54.1526C147.104 54.1526 146.595 54.0305 146.167 53.7863C145.74 53.5319 145.409 53.1706 145.175 52.7025C144.951 52.2242 144.839 51.6391 144.839 50.9471V45.9862H145.999V50.6571C145.999 51.461 146.183 52.0767 146.549 52.5041C146.925 52.9213 147.45 53.1299 148.121 53.1299C148.447 53.1299 148.742 53.074 149.006 52.962C149.281 52.8399 149.52 52.6822 149.724 52.4888C149.927 52.2955 150.085 52.0818 150.197 51.8477C150.319 51.6035 150.38 51.3593 150.38 51.115V45.9862H151.54V54H150.396L150.38 52.2599L150.609 52.1378C150.487 52.5041 150.278 52.845 149.983 53.1605C149.698 53.4657 149.358 53.71 148.961 53.8931C148.574 54.0661 148.152 54.1526 147.694 54.1526ZM153.723 54V45.9862H154.883L154.899 48.3064L154.761 47.9095C154.863 47.5432 155.036 47.2023 155.28 46.8868C155.535 46.5714 155.84 46.322 156.196 46.1389C156.552 45.9455 156.944 45.8488 157.371 45.8488C157.544 45.8488 157.707 45.8641 157.86 45.8946C158.013 45.915 158.14 45.9455 158.242 45.9862L157.936 47.2532C157.794 47.2023 157.646 47.1616 157.494 47.131C157.351 47.0903 157.214 47.07 157.081 47.07C156.766 47.07 156.471 47.1361 156.196 47.2684C155.932 47.3905 155.703 47.5585 155.509 47.7722C155.316 47.9859 155.163 48.2301 155.051 48.5048C154.949 48.7694 154.899 49.0442 154.899 49.3291V54H153.723ZM162.708 54.1526C161.904 54.1526 161.192 53.9796 160.571 53.6337C159.95 53.2775 159.462 52.789 159.106 52.1683C158.76 51.5475 158.587 50.8403 158.587 50.0465C158.587 49.4258 158.683 48.861 158.877 48.3522C159.08 47.8332 159.355 47.3905 159.701 47.0242C160.057 46.6477 160.479 46.3577 160.968 46.1541C161.456 45.9506 161.991 45.8488 162.571 45.8488C163.079 45.8488 163.553 45.9404 163.99 46.1236C164.438 46.3068 164.825 46.5714 165.15 46.9173C165.476 47.2532 165.725 47.6551 165.898 48.1232C166.071 48.5812 166.148 49.09 166.127 49.6497L166.112 50.2297H159.426L159.182 49.2833H165.15L164.937 49.5428L164.952 49.1612C164.931 48.7236 164.809 48.3369 164.586 48.0011C164.362 47.6653 164.072 47.4007 163.715 47.2074C163.369 47.014 162.988 46.9173 162.571 46.9173C161.98 46.9173 161.472 47.0446 161.044 47.299C160.617 47.5432 160.291 47.8943 160.067 48.3522C159.854 48.8 159.742 49.3393 159.731 49.9702C159.742 50.6011 159.874 51.1507 160.128 51.6188C160.383 52.0767 160.739 52.4379 161.197 52.7025C161.665 52.9569 162.204 53.0841 162.815 53.0841C163.252 53.0841 163.659 53.0129 164.036 52.8704C164.413 52.7178 164.794 52.4685 165.181 52.1225L165.761 52.9468C165.517 53.191 165.227 53.4047 164.891 53.5879C164.565 53.7609 164.214 53.8982 163.838 54C163.461 54.1018 163.085 54.1526 162.708 54.1526ZM170.482 54.1526C169.81 54.1526 169.204 54.0356 168.665 53.8016C168.126 53.5573 167.688 53.2113 167.352 52.7636L168.146 52.0767C168.441 52.443 168.792 52.7178 169.199 52.901C169.606 53.0841 170.069 53.1757 170.588 53.1757C170.853 53.1757 171.087 53.1452 171.291 53.0841C171.494 53.0129 171.667 52.9213 171.81 52.8094C171.952 52.6873 172.054 52.5499 172.115 52.3972C172.186 52.2344 172.222 52.0614 172.222 51.8783C172.222 51.5424 172.089 51.2728 171.825 51.0692C171.682 50.9675 171.484 50.8708 171.23 50.7792C170.985 50.6775 170.685 50.5808 170.329 50.4892C169.779 50.3569 169.316 50.2043 168.94 50.0313C168.574 49.8481 168.284 49.6395 168.07 49.4054C167.907 49.2223 167.785 49.0238 167.703 48.8101C167.622 48.5964 167.581 48.3522 167.581 48.0774C167.581 47.6399 167.703 47.2532 167.948 46.9173C168.192 46.5815 168.523 46.322 168.94 46.1389C169.367 45.9455 169.851 45.8488 170.39 45.8488C170.756 45.8488 171.118 45.8997 171.474 46.0015C171.84 46.1033 172.176 46.2508 172.481 46.4442C172.787 46.6375 173.051 46.8716 173.275 47.1463L172.588 47.879C172.385 47.6653 172.161 47.4821 171.916 47.3295C171.682 47.1667 171.438 47.0446 171.184 46.9631C170.929 46.8716 170.68 46.8258 170.436 46.8258C170.171 46.8258 169.932 46.8563 169.718 46.9173C169.505 46.9682 169.322 47.0496 169.169 47.1616C169.026 47.2633 168.92 47.3905 168.848 47.5432C168.777 47.6857 168.741 47.8536 168.741 48.0469C168.752 48.1894 168.787 48.3318 168.848 48.4743C168.909 48.6066 168.996 48.7185 169.108 48.8101C169.25 48.9221 169.454 49.034 169.718 49.1459C169.983 49.2477 170.304 49.3393 170.68 49.4207C171.168 49.5428 171.581 49.6802 171.916 49.8328C172.252 49.9753 172.522 50.1483 172.725 50.3518C172.939 50.535 173.092 50.7487 173.183 50.9929C173.275 51.2372 173.321 51.517 173.321 51.8325C173.321 52.2904 173.199 52.6974 172.954 53.0536C172.71 53.3996 172.374 53.6693 171.947 53.8626C171.52 54.056 171.031 54.1526 170.482 54.1526Z" fill="#0E0E0E"/>
<rect x="22.4448" y="70" width="174.11" height="125.919" rx="27.9189" fill="#F1F2F4"/>
<path d="M85.9039 170.253C82.6467 170.253 79.585 169.666 76.7186 168.494C73.9174 167.321 71.4745 165.66 69.3899 163.51C67.3053 161.36 65.6442 158.852 64.4064 155.986C63.2338 153.055 62.6475 149.83 62.6475 146.312C62.6475 143.902 63.0384 141.198 63.8201 138.202C64.6019 135.14 65.7744 131.883 67.3379 128.43C68.9014 124.912 70.8883 121.199 73.2986 117.29L83.5588 100.776H91.0829L91.376 101.656L80.041 120.027C78.1518 123.088 76.4581 126.052 74.9598 128.919C73.5266 131.72 72.3214 134.326 71.3443 136.736C70.4322 139.146 69.8134 141.296 69.4877 143.185L67.7288 136.345C69.3574 133.479 71.1814 131.101 73.2009 129.212C75.2203 127.258 77.4352 125.792 79.8456 124.815C82.2559 123.772 84.8291 123.251 87.5651 123.251C91.4738 123.251 95.0241 124.293 98.2162 126.378C101.473 128.398 104.047 131.101 105.936 134.489C107.89 137.876 108.867 141.654 108.867 145.824C108.867 150.449 107.857 154.618 105.838 158.331C103.884 162.044 101.18 164.976 97.7276 167.126C94.275 169.21 90.3337 170.253 85.9039 170.253ZM86.0017 163.119C88.9331 163.119 91.5389 162.403 93.8189 160.97C96.1641 159.536 98.0207 157.582 99.3888 155.107C100.757 152.631 101.441 149.797 101.441 146.605C101.441 143.674 100.724 141.003 99.291 138.593C97.923 136.117 96.099 134.163 93.8189 132.73C91.5389 131.231 88.9657 130.482 86.0994 130.482C83.1028 130.482 80.3993 131.199 77.9889 132.632C75.5786 134.065 73.6894 136.019 72.3214 138.495C70.9534 140.905 70.2694 143.609 70.2694 146.605C70.2694 149.667 70.9534 152.468 72.3214 155.009C73.6894 157.484 75.546 159.471 77.8912 160.97C80.3016 162.403 83.005 163.119 86.0017 163.119ZM134.114 166.599V127.959H140.434V166.599H134.114ZM117.874 150.039V144.679H157.074V150.039H117.874Z" fill="#0E0E0E"/>
</g>
<defs>
<filter id="filter0_d_46_187" x="0.638762" y="0" width="217.722" height="242.081" filterUnits="userSpaceOnUse" color-interpolation-filters="sRGB">
<feFlood flood-opacity="0" result="BackgroundImageFix"/>
<feColorMatrix in="SourceAlpha" type="matrix" values="0 0 0 0 0 0 0 0 0 0 0 0 0 0 0 0 0 0 127 0" result="hardAlpha"/>
<feOffset dy="4.36124"/>
<feGaussianBlur stdDeviation="2.18062"/>
<feComposite in2="hardAlpha" operator="out"/>
<feColorMatrix type="matrix" values="0 0 0 0 0 0 0 0 0 0 0 0 0 0 0 0 0 0 0.25 0"/>
<feBlend mode="normal" in2="BackgroundImageFix" result="effect1_dropShadow_46_187"/>
<feBlend mode="normal" in="SourceGraphic" in2="effect1_dropShadow_46_187" result="shape"/>
</filter>
</defs>
</svg>
