<svg width="36" height="32" viewBox="0 0 36 32" fill="none" xmlns="http://www.w3.org/2000/svg">
<rect width="32" height="34.9091" rx="2.90909" transform="matrix(0 1 1 0 0.908203 0)" fill="#D9D9D9"/>
<path d="M14.1884 25.4545H23.6427C23.8706 25.4545 24.0892 25.364 24.2504 25.2028C24.4116 25.0416 24.5022 24.823 24.5022 24.5951C24.5022 24.3671 24.4116 24.1485 24.2504 23.9873C24.0892 23.8261 23.8706 23.7356 23.6427 23.7356H14.1884C12.8207 23.7356 11.509 23.1923 10.5419 22.2252C9.57478 21.258 9.03147 19.9464 9.03147 18.5787C9.03147 17.211 9.57478 15.8993 10.5419 14.9322C11.509 13.9651 12.8207 13.4218 14.1884 13.4218L26.725 13.4218L23.0346 17.1111C22.8733 17.2724 22.7827 17.4911 22.7827 17.7192C22.7827 17.9473 22.8733 18.166 23.0346 18.3273C23.1959 18.4885 23.4146 18.5792 23.6427 18.5792C23.8707 18.5792 24.0895 18.4885 24.2508 18.3273L29.4076 13.1704C29.4876 13.0906 29.551 12.9958 29.5942 12.8914C29.6375 12.7871 29.6597 12.6752 29.6597 12.5623C29.6597 12.4493 29.6375 12.3375 29.5942 12.2332C29.551 12.1288 29.4876 12.034 29.4076 11.9542L24.2508 6.79732C24.1709 6.71746 24.0761 6.65412 23.9718 6.6109C23.8674 6.56768 23.7556 6.54544 23.6427 6.54544C23.5297 6.54544 23.4179 6.56768 23.3136 6.6109C23.2092 6.65412 23.1144 6.71746 23.0346 6.79732C22.8733 6.95859 22.7827 7.17733 22.7827 7.4054C22.7827 7.51833 22.805 7.63016 22.8482 7.73449C22.8914 7.83883 22.9547 7.93363 23.0346 8.01348L26.725 11.7028L14.1884 11.7028C12.3648 11.7028 10.6159 12.4272 9.32639 13.7167C8.03692 15.0062 7.3125 16.7551 7.3125 18.5787C7.3125 20.4023 8.03692 22.1512 9.32639 23.4406C10.6159 24.7301 12.3648 25.4545 14.1884 25.4545Z" fill="black"/>
</svg>
