<svg width="35" height="32" viewBox="0 0 35 32" fill="none" xmlns="http://www.w3.org/2000/svg">
<rect x="34.9082" width="32" height="34.9091" rx="2.90909" transform="rotate(90 34.9082 0)" fill="#D9D9D9"/>
<path d="M21.6183 25.4545H12.164C11.936 25.4545 11.7174 25.364 11.5562 25.2028C11.395 25.0416 11.3045 24.823 11.3045 24.5951C11.3045 24.3671 11.395 24.1485 11.5562 23.9873C11.7174 23.8261 11.936 23.7356 12.164 23.7356H21.6183C22.986 23.7356 24.2977 23.1923 25.2648 22.2252C26.2319 21.258 26.7752 19.9464 26.7752 18.5787C26.7752 17.211 26.2319 15.8993 25.2648 14.9322C24.2977 13.9651 22.986 13.4218 21.6183 13.4218L9.08165 13.4218L12.7721 17.1111C12.9333 17.2724 13.0239 17.4911 13.0239 17.7192C13.0239 17.9473 12.9333 18.166 12.7721 18.3273C12.6108 18.4885 12.392 18.5792 12.164 18.5792C11.9359 18.5792 11.7172 18.4885 11.5559 18.3273L6.39899 13.1704C6.31908 13.0906 6.25569 12.9958 6.21243 12.8914C6.16918 12.7871 6.14692 12.6752 6.14692 12.5623C6.14692 12.4493 6.16918 12.3375 6.21243 12.2332C6.25569 12.1288 6.31908 12.034 6.39899 11.9542L11.5559 6.79732C11.6357 6.71746 11.7305 6.65412 11.8349 6.6109C11.9392 6.56768 12.051 6.54544 12.164 6.54544C12.2769 6.54544 12.3887 6.56768 12.4931 6.6109C12.5974 6.65412 12.6922 6.71746 12.7721 6.79732C12.9333 6.95859 13.0239 7.17733 13.0239 7.4054C13.0239 7.51833 13.0017 7.63016 12.9585 7.73449C12.9153 7.83883 12.8519 7.93363 12.7721 8.01348L9.08165 11.7028L21.6183 11.7028C23.4419 11.7028 25.1908 12.4272 26.4802 13.7167C27.7697 15.0062 28.4941 16.7551 28.4941 18.5787C28.4941 20.4023 27.7697 22.1512 26.4802 23.4406C25.1908 24.7301 23.4419 25.4545 21.6183 25.4545Z" fill="black"/>
</svg>
