<svg width="52" height="52" viewBox="0 0 52 52" fill="none" xmlns="http://www.w3.org/2000/svg">
<g filter="url(#filter0_d_58_76)">
<rect x="4" y="3.65277" width="40" height="40" rx="4" transform="rotate(-5.2395 4 3.65277)" fill="white" shape-rendering="crispEdges"/>
<g clip-path="url(#clip0_58_76)">
<path d="M35.5833 19.7177C35.0336 19.7681 34.5467 19.363 34.4963 18.8132C34.2401 16.02 32.9119 13.4947 30.756 11.7C30.331 11.3464 30.2733 10.7171 30.6269 10.2919C30.9804 9.86694 31.6099 9.80921 32.0349 10.1628C34.6018 12.2983 36.1829 15.3056 36.4878 18.6306C36.5382 19.1804 36.1331 19.6673 35.5833 19.7177Z" fill="#0077B6"/>
<path d="M15.6671 21.5441C15.1175 21.5945 14.6305 21.1894 14.58 20.6396C14.2751 17.3146 15.2831 14.0699 17.4186 11.5032C17.7722 11.0782 18.4016 11.0205 18.8266 11.3741C19.2518 11.7278 19.3095 12.3571 18.9557 12.7821C17.1621 14.9379 16.3156 17.6637 16.5717 20.457C16.6222 21.0067 16.2169 21.4937 15.6671 21.5441Z" fill="#0077B6"/>
<path d="M35.516 25.7803C33.8935 24.6457 32.8596 22.8646 32.6788 20.8939L32.4242 18.1175C32.1029 14.6133 29.2338 11.9512 25.8174 11.7745L25.7188 10.6988C25.6683 10.1482 25.1813 9.74398 24.6317 9.79438C24.0819 9.84479 23.6766 10.3308 23.727 10.8815L23.8257 11.9571C20.4975 12.7523 18.1613 15.8918 18.4827 19.396L18.7373 22.1723C18.918 24.1431 18.2252 26.0825 16.8281 27.5019C16.4711 27.8691 16.2932 28.3714 16.3399 28.8813C16.428 29.8424 17.2814 30.5524 18.2425 30.4643L34.6736 28.9575C35.6345 28.8694 36.3445 28.016 36.2564 27.0549C36.2097 26.5451 35.9434 26.0835 35.516 25.7803Z" fill="#0077B6"/>
<path d="M26.8232 33.6941C28.6266 33.5287 30.0174 32.1047 30.2079 30.3711L22.8906 31.0421C23.3931 32.7122 25.0197 33.8595 26.8232 33.6941Z" fill="#0077B6"/>
</g>
</g>
<defs>
<filter id="filter0_d_58_76" x="0" y="0" width="51.4858" height="51.4856" filterUnits="userSpaceOnUse" color-interpolation-filters="sRGB">
<feFlood flood-opacity="0" result="BackgroundImageFix"/>
<feColorMatrix in="SourceAlpha" type="matrix" values="0 0 0 0 0 0 0 0 0 0 0 0 0 0 0 0 0 0 127 0" result="hardAlpha"/>
<feOffset dy="4"/>
<feGaussianBlur stdDeviation="2"/>
<feComposite in2="hardAlpha" operator="out"/>
<feColorMatrix type="matrix" values="0 0 0 0 0 0 0 0 0 0 0 0 0 0 0 0 0 0 0.25 0"/>
<feBlend mode="normal" in2="BackgroundImageFix" result="effect1_dropShadow_58_76"/>
<feBlend mode="normal" in="SourceGraphic" in2="effect1_dropShadow_58_76" result="shape"/>
</filter>
<clipPath id="clip0_58_76">
<rect width="24" height="24" fill="white" transform="translate(12.6973 10.8888) rotate(-5.2395)"/>
</clipPath>
</defs>
</svg>
