<svg width="360" height="240" viewBox="0 0 360 240" fill="none" xmlns="http://www.w3.org/2000/svg">
<g clip-path="url(#clip0_1345_9619)">
<path d="M261.197 40.8H148.397C141.99 40.8 136.797 45.9935 136.797 52.4V77.2C136.797 83.6065 141.99 88.8 148.397 88.8H261.197C267.603 88.8 272.797 83.6065 272.797 77.2V52.4C272.797 45.9935 267.603 40.8 261.197 40.8Z" fill="white" stroke="#E1E4E5" stroke-width="0.8"/>
<path d="M168.802 45.2H153.602C146.974 45.2 141.602 50.5726 141.602 57.2V72.4C141.602 79.0274 146.974 84.4 153.602 84.4H168.802C175.429 84.4 180.802 79.0274 180.802 72.4V57.2C180.802 50.5726 175.429 45.2 168.802 45.2Z" fill="#F07306"/>
<path fill-rule="evenodd" clip-rule="evenodd" d="M170.107 73.022V74.3324C170.107 75.056 169.527 75.6432 168.813 75.6432H153.293C152.579 75.6432 152 75.056 152 74.3324V73.0008C152 69.0352 156.472 66.4584 161.053 66.4584C165.634 66.4584 170.107 69.0364 170.107 73.0008M164.3 54.9452C166.094 56.7384 166.094 59.646 164.3 61.4396C162.507 63.2332 159.6 63.2332 157.806 61.4396C156.012 59.646 156.012 56.7384 157.806 54.9452C159.6 53.1516 162.507 53.1516 164.3 54.9452Z" fill="white"/>
<path d="M255.799 51.6H187.399C186.184 51.6 185.199 52.585 185.199 53.8C185.199 55.015 186.184 56 187.399 56H255.799C257.014 56 257.999 55.015 257.999 53.8C257.999 52.585 257.014 51.6 255.799 51.6Z" fill="#E1E4E5"/>
<path d="M255.799 62.4H187.399C186.184 62.4 185.199 63.385 185.199 64.6C185.199 65.815 186.184 66.8 187.399 66.8H255.799C257.014 66.8 257.999 65.815 257.999 64.6C257.999 63.385 257.014 62.4 255.799 62.4Z" fill="#E1E4E5"/>
<path d="M255.799 73.2H187.399C186.184 73.2 185.199 74.185 185.199 75.4C185.199 76.615 186.184 77.6 187.399 77.6H255.799C257.014 77.6 257.999 76.615 257.999 75.4C257.999 74.185 257.014 73.2 255.799 73.2Z" fill="#E1E4E5"/>
<path d="M261.198 151.183H148.398C141.982 151.183 136.781 156.384 136.781 162.8V187.6C136.781 194.016 141.982 199.217 148.398 199.217H261.198C267.614 199.217 272.816 194.016 272.816 187.6V162.8C272.816 156.384 267.614 151.183 261.198 151.183Z" fill="white" stroke="#E1E4E5" stroke-width="0.7656"/>
<path d="M168.802 155.6H153.602C146.974 155.6 141.602 160.973 141.602 167.6V182.8C141.602 189.427 146.974 194.8 153.602 194.8H168.802C175.429 194.8 180.802 189.427 180.802 182.8V167.6C180.802 160.973 175.429 155.6 168.802 155.6Z" fill="#F07306"/>
<path fill-rule="evenodd" clip-rule="evenodd" d="M170.107 183.422V184.732C170.107 185.456 169.527 186.043 168.813 186.043H153.293C152.579 186.043 152 185.456 152 184.732V183.401C152 179.435 156.472 176.858 161.053 176.858C165.634 176.858 170.107 179.436 170.107 183.401M164.3 165.345C166.094 167.138 166.094 170.046 164.3 171.84C162.507 173.633 159.6 173.633 157.806 171.84C156.012 170.046 156.012 167.138 157.806 165.345C159.6 163.552 162.507 163.552 164.3 165.345Z" fill="white"/>
<path d="M255.799 162H187.399C186.184 162 185.199 162.985 185.199 164.2C185.199 165.415 186.184 166.4 187.399 166.4H255.799C257.014 166.4 257.999 165.415 257.999 164.2C257.999 162.985 257.014 162 255.799 162Z" fill="#E1E4E5"/>
<path d="M255.799 172.8H187.399C186.184 172.8 185.199 173.785 185.199 175C185.199 176.215 186.184 177.2 187.399 177.2H255.799C257.014 177.2 257.999 176.215 257.999 175C257.999 173.785 257.014 172.8 255.799 172.8Z" fill="#E1E4E5"/>
<path d="M255.799 183.6H187.399C186.184 183.6 185.199 184.585 185.199 185.8C185.199 187.015 186.184 188 187.399 188H255.799C257.014 188 257.999 187.015 257.999 185.8C257.999 184.585 257.014 183.6 255.799 183.6Z" fill="#E1E4E5"/>
<path d="M294.798 96H181.998C175.592 96 170.398 101.193 170.398 107.6V132.4C170.398 138.807 175.592 144 181.998 144H294.798C301.205 144 306.398 138.807 306.398 132.4V107.6C306.398 101.193 301.205 96 294.798 96Z" fill="white" stroke="#E1E4E5" stroke-width="0.8"/>
<path d="M202.399 100.4H187.199C180.572 100.4 175.199 105.773 175.199 112.4V127.6C175.199 134.227 180.572 139.6 187.199 139.6H202.399C209.027 139.6 214.399 134.227 214.399 127.6V112.4C214.399 105.773 209.027 100.4 202.399 100.4Z" fill="#F07306"/>
<path fill-rule="evenodd" clip-rule="evenodd" d="M203.708 128.222V129.532C203.708 130.256 203.129 130.843 202.415 130.843H186.895C186.181 130.843 185.602 130.256 185.602 129.532V128.201C185.602 124.235 190.074 121.658 194.655 121.658C199.236 121.658 203.708 124.236 203.708 128.201M197.902 110.145C199.696 111.938 199.696 114.846 197.902 116.64C196.109 118.433 193.201 118.433 191.408 116.64C189.614 114.846 189.614 111.938 191.408 110.145C193.201 108.352 196.109 108.352 197.902 110.145Z" fill="white"/>
<path d="M289.397 106.8H220.997C219.782 106.8 218.797 107.785 218.797 109C218.797 110.215 219.782 111.2 220.997 111.2H289.397C290.612 111.2 291.597 110.215 291.597 109C291.597 107.785 290.612 106.8 289.397 106.8Z" fill="#E1E4E5"/>
<path d="M289.397 117.6H220.997C219.782 117.6 218.797 118.585 218.797 119.8C218.797 121.015 219.782 122 220.997 122H289.397C290.612 122 291.597 121.015 291.597 119.8C291.597 118.585 290.612 117.6 289.397 117.6Z" fill="#E1E4E5"/>
<path d="M289.397 128.4H220.997C219.782 128.4 218.797 129.385 218.797 130.6C218.797 131.815 219.782 132.8 220.997 132.8H289.397C290.612 132.8 291.597 131.815 291.597 130.6C291.597 129.385 290.612 128.4 289.397 128.4Z" fill="#E1E4E5"/>
<path fill-rule="evenodd" clip-rule="evenodd" d="M141.488 135.538C133.118 135.538 126.332 128.656 126.332 120.169C126.332 111.682 133.118 104.8 141.488 104.8C149.857 104.8 156.643 111.682 156.643 120.169C156.643 128.656 149.857 135.538 141.488 135.538Z" fill="#F07306"/>
<path d="M146.824 117.608L140.422 124.438L136.578 120.34" stroke="white" stroke-width="2.5152" stroke-linecap="round" stroke-linejoin="round"/>
<path d="M120.191 84.174C119.954 86.0064 119.319 88.2152 118.292 88.9652C117.126 89.8168 116.766 90.7208 116.766 90.7208L115.582 90.3556L114.166 89.9192C114.166 89.9192 114.164 89.7748 114.173 89.534C114.18 89.2956 114.202 88.9616 114.249 88.5856C114.249 88.5856 114.519 88.0052 114.14 87.4412C113.762 86.8784 113.588 85.9124 113.855 85.2376C114.12 84.5648 114.175 83.0412 114.425 83.0292C115.032 82.9952 114.617 85.166 114.952 85.4724C115.253 85.7516 115.511 85.5724 115.557 85.534C115.561 85.5316 115.564 85.529 115.567 85.5264C117.037 84.428 118.124 80.0892 119.124 80.4108C119.497 80.5304 120.294 83.394 120.191 84.174ZM60.4212 129.262C60.4212 129.262 61.6764 131.434 61.1144 132.686C60.554 133.94 58.608 135.611 58.106 136.267C57.606 136.921 55.9088 138.65 55.2248 137.538C54.5416 136.428 55.7484 133.475 56.5852 132.362C57.4212 131.248 57.5004 129.334 57.5004 129.334L60.4212 129.262Z" fill="#F8AE9D"/>
<path d="M61.2246 132.324C61.2246 132.324 61.1289 134.718 61.0153 135.357C60.9009 135.997 60.7882 135.801 60.3506 135.372C59.913 134.942 59.9178 133.689 59.7538 133.607C59.5898 133.524 61.2246 132.324 61.2246 132.324Z" fill="#F8AE9D"/>
<path d="M83.1804 83.9128C83.1804 83.9128 97.822 99.6948 102.38 102.168L113.864 88.6124C113.864 88.6124 116.02 88.7636 117.369 90.5816C117.369 90.5816 112.914 109.7 104.784 112.348C96.6552 114.995 80.082 96.3804 80.082 96.3804L83.1804 83.9128ZM96.8316 199.6H81.7964C81.074 198.748 81.34 195.604 81.4484 194.576C81.4712 194.369 81.4864 194.25 81.4864 194.25C81.4864 194.25 86.6204 190.285 87.3256 193.321C87.3468 193.416 87.3732 193.51 87.4016 193.602C88.2896 196.441 92.2756 197.732 94.5752 198.091C96.0732 198.324 96.6264 199.075 96.8316 199.6Z" fill="#31446C"/>
<path d="M86.7089 199.6H71.6737C70.9513 198.748 71.2177 195.604 71.3257 194.576C71.3485 194.369 71.3637 194.25 71.3637 194.25C71.3637 194.25 76.4981 190.285 77.2033 193.321C77.2241 193.416 77.2505 193.51 77.2793 193.602C78.1669 196.441 82.1529 197.732 84.4529 198.091C85.9505 198.324 86.5037 199.075 86.7089 199.6Z" fill="#31446C"/>
<path d="M92.727 131.997C92.727 131.997 92.0082 139.777 91.1634 149.128C90.015 161.831 88.6338 177.435 88.497 180.39C88.2602 185.524 87.3138 193.734 87.3138 193.734C87.3138 193.734 85.0662 195.684 80.5678 194.862C80.5678 194.862 76.5586 183.141 75.4142 170.739L75.3614 170.126C74.2954 157.502 72.6406 130.918 72.6406 130.918L92.727 131.997Z" fill="#F07306"/>
<path d="M88.6476 132.53C88.6476 132.53 87.292 140.232 85.682 149.491C83.494 162.069 80.8364 177.522 80.46 180.456C79.8072 185.552 78.1852 193.669 78.1852 193.669C78.1852 193.669 75.7408 195.479 71.2272 194.394C71.2272 194.394 68.0852 182.49 67.9148 170.076L67.9104 169.463C67.8376 156.832 68.2848 130.27 68.2848 130.27L88.6476 132.53Z" fill="#F07306"/>
<path d="M86.317 86.7548C81.1506 88.3864 72.625 83.7868 72.625 83.7868C72.625 83.7868 76.9738 80.4076 76.725 72.9732L80.7194 76.1932L83.4334 78.3792C83.4334 78.3792 83.4226 79.6688 83.1254 81.9284C83.047 82.5224 82.9038 83.4508 83.349 83.9264C85.079 85.7728 86.317 86.7548 86.317 86.7548Z" fill="#F8AE9D"/>
<path d="M85.0136 78.2572C85.0136 78.2572 76.4788 79.676 75.6772 74.3468C74.876 69.0176 73.2356 65.6116 78.6504 64.4812C84.0652 63.3504 85.434 65.2236 86.1332 66.9372C86.8328 68.6512 87.212 77.7512 85.0136 78.2572Z" fill="#F8AE9D"/>
<path d="M93.5324 134.754C93.3768 134.883 93.196 134.962 92.9884 134.962C91.0476 134.935 85.3892 136.014 80.6024 135.522C76.5664 135.133 72.9924 133.938 69.1568 132.219C68.6472 131.99 67.4756 131.364 67.5004 130.795C67.5184 130.171 67.5792 129.268 67.658 128.128C67.93 124.168 68.402 117.357 67.9404 109.499C67.8586 108.052 67.8145 106.604 67.808 105.155C67.7688 94.504 69.8796 85.1376 74.1248 81.9676C74.488 81.7084 76.7132 82.796 78.758 83.8032C80.6468 84.7352 82.128 84.8336 83.9136 84.472L86.1048 86.0536C88.2784 88.0712 90.6592 90.8156 91.6952 94.98C92.5752 98.5256 93.0924 104.917 93.3768 111.542C93.5056 114.543 93.6092 117.572 93.636 120.443V120.545C93.6612 120.83 93.6612 121.141 93.6612 121.425C93.7648 128.802 93.6612 134.65 93.5324 134.754Z" fill="#31446C"/>
<path d="M59.1388 130.368C60.7588 130.588 62.4872 130.36 62.4872 130.36C62.4872 130.36 66.394 115.394 66.9288 114.018C67.464 112.641 80.058 95.9764 80.058 95.9764L73.614 82.2128C73.614 82.2128 60.4096 107.473 59.124 110.989C56.9996 116.8 56.8828 129.559 56.8828 129.559C56.8828 129.559 57.8656 130.196 59.1388 130.368ZM74.7148 72.438C75.1792 73.3984 76.5272 73.5408 76.4028 72.4812C76.2616 71.2752 76.2632 69.6976 77.2436 69.9908C78.224 70.2844 78.274 71.0696 78.6764 70.6116C79.0792 70.1536 79.0864 68.2216 82.0056 68.0856C84.9252 67.9516 86.1112 68.9676 87.4672 68.37C88.28 68.0124 88.6316 67.1332 88.7832 66.4848C88.8264 66.3012 88.6924 66.0448 88.57 66.188C88.454 66.3236 88.1624 66.3148 88.2456 66.1572C88.7596 65.1816 89.5288 63.0516 87.5692 61.4652C84.9468 59.3416 82.274 60.7316 80.7572 60.8228C77.4136 61.0248 75.2544 61.2252 74.1632 63.422C73.2588 65.2444 73.4136 69.7464 74.7148 72.438Z" fill="#31446C"/>
<path fill-rule="evenodd" clip-rule="evenodd" d="M301.021 63.4452H299.988C299.868 63.4451 299.753 63.3975 299.669 63.3129C299.584 63.2283 299.537 63.1136 299.537 62.994V61.9608C299.537 61.7108 299.74 61.5096 299.988 61.5096H301.021C301.269 61.5096 301.472 61.7128 301.472 61.9608V62.994C301.473 63.0533 301.461 63.112 301.438 63.1669C301.416 63.2217 301.383 63.2715 301.341 63.3134C301.299 63.3553 301.249 63.3886 301.194 63.4112C301.139 63.4338 301.081 63.4454 301.021 63.4452ZM297.438 63.4452H296.405C296.157 63.4452 295.954 63.242 295.954 62.994V61.9608C295.954 61.7108 296.157 61.5096 296.405 61.5096H297.438C297.686 61.5096 297.889 61.7128 297.889 61.9608V62.994C297.889 63.242 297.686 63.4452 297.438 63.4452ZM293.853 63.4452H292.819C292.571 63.4452 292.368 63.242 292.368 62.994V61.9608C292.368 61.7108 292.571 61.5096 292.819 61.5096H293.853C294.1 61.5096 294.304 61.7128 294.304 61.9608V62.994C294.304 63.0533 294.292 63.112 294.27 63.1668C294.247 63.2216 294.214 63.2713 294.172 63.3133C294.13 63.3552 294.08 63.3884 294.026 63.4111C293.971 63.4337 293.912 63.4453 293.853 63.4452ZM290.269 63.4452H289.236C289.116 63.4448 289.002 63.3971 288.917 63.3126C288.833 63.2281 288.785 63.1135 288.784 62.994V61.9608C288.785 61.8412 288.832 61.7266 288.917 61.642C289.001 61.5574 289.116 61.5098 289.236 61.5096H290.269C290.519 61.5096 290.722 61.7128 290.722 61.9608V62.994C290.721 63.1136 290.673 63.228 290.588 63.3124C290.503 63.3968 290.389 63.4445 290.269 63.4452ZM286.686 63.4452H285.652C285.533 63.4452 285.418 63.3977 285.333 63.3132C285.248 63.2286 285.2 63.1139 285.199 62.994V61.9608C285.199 61.9014 285.211 61.8426 285.234 61.7878C285.257 61.733 285.29 61.6832 285.332 61.6413C285.374 61.5994 285.424 61.5662 285.479 61.5436C285.534 61.521 285.593 61.5094 285.652 61.5096H286.686C286.934 61.5096 287.137 61.7128 287.137 61.9608V62.994C287.137 63.242 286.934 63.4452 286.686 63.4452ZM297.307 59.538H296.273C296.025 59.538 295.822 59.3344 295.822 59.0868V58.0512C295.822 57.8032 296.025 57.6 296.273 57.6H297.307C297.556 57.6 297.758 57.8032 297.758 58.0512V59.0848C297.758 59.1442 297.747 59.2031 297.724 59.2581C297.702 59.3131 297.668 59.3631 297.627 59.4052C297.585 59.4474 297.535 59.4808 297.48 59.5036C297.425 59.5264 297.366 59.5381 297.307 59.538ZM293.723 59.538H292.69C292.442 59.538 292.239 59.3344 292.239 59.0868V58.0512C292.239 57.8032 292.442 57.6 292.69 57.6H293.723C293.971 57.6 294.174 57.8032 294.174 58.0512V59.0848C294.175 59.1442 294.163 59.2032 294.141 59.2581C294.118 59.3131 294.085 59.3631 294.043 59.4053C294.001 59.4474 293.951 59.4808 293.896 59.5036C293.842 59.5264 293.783 59.5381 293.723 59.538ZM290.14 59.538H289.106C288.987 59.5379 288.872 59.4904 288.787 59.4059C288.702 59.3213 288.654 59.2066 288.653 59.0868V58.0512C288.653 57.8032 288.856 57.6 289.106 57.6H290.14C290.388 57.6 290.591 57.8032 290.591 58.0512V59.0848C290.591 59.3344 290.388 59.538 290.14 59.538ZM293.853 67.6428H292.819C292.571 67.6428 292.368 67.4396 292.368 67.1916V66.1584C292.368 65.9084 292.571 65.7072 292.819 65.7072H293.853C294.1 65.7072 294.304 65.9104 294.304 66.1584V67.1916C294.304 67.2509 294.292 67.3096 294.27 67.3644C294.247 67.4192 294.214 67.4689 294.172 67.5109C294.13 67.5528 294.08 67.586 294.026 67.6087C293.971 67.6313 293.912 67.6429 293.853 67.6428ZM290.269 67.6428H289.236C289.116 67.6424 289.002 67.5947 288.917 67.5102C288.833 67.4257 288.785 67.3111 288.784 67.1916V66.1584C288.785 66.0388 288.832 65.9242 288.917 65.8396C289.001 65.755 289.116 65.7074 289.236 65.7072H290.269C290.519 65.7072 290.722 65.9104 290.722 66.1584V67.1916C290.721 67.3112 290.673 67.4256 290.588 67.51C290.503 67.5944 290.389 67.6421 290.269 67.6428ZM301.021 175.845H299.988C299.868 175.845 299.753 175.798 299.669 175.713C299.584 175.628 299.537 175.514 299.537 175.394V174.361C299.537 174.111 299.74 173.91 299.988 173.91H301.021C301.269 173.91 301.472 174.113 301.472 174.361V175.394C301.473 175.453 301.461 175.512 301.438 175.567C301.416 175.622 301.383 175.671 301.341 175.713C301.299 175.755 301.249 175.789 301.194 175.811C301.139 175.834 301.081 175.845 301.021 175.845ZM297.438 175.845H296.405C296.157 175.845 295.954 175.642 295.954 175.394V174.361C295.954 174.111 296.157 173.91 296.405 173.91H297.438C297.686 173.91 297.889 174.113 297.889 174.361V175.394C297.889 175.642 297.686 175.845 297.438 175.845ZM293.853 175.845H292.819C292.571 175.845 292.368 175.642 292.368 175.394V174.361C292.368 174.111 292.571 173.91 292.819 173.91H293.853C294.1 173.91 294.304 174.113 294.304 174.361V175.394C294.304 175.453 294.292 175.512 294.27 175.567C294.247 175.622 294.214 175.671 294.172 175.713C294.13 175.755 294.08 175.788 294.026 175.811C293.971 175.834 293.912 175.845 293.853 175.845ZM290.269 175.845H289.236C289.116 175.845 289.002 175.797 288.917 175.713C288.833 175.628 288.785 175.514 288.784 175.394V174.361C288.785 174.241 288.832 174.127 288.917 174.042C289.001 173.957 289.116 173.91 289.236 173.91H290.269C290.519 173.91 290.722 174.113 290.722 174.361V175.394C290.721 175.514 290.673 175.628 290.588 175.712C290.503 175.797 290.389 175.844 290.269 175.845ZM286.686 175.845H285.652C285.533 175.845 285.418 175.798 285.333 175.713C285.248 175.629 285.2 175.514 285.199 175.394V174.361C285.199 174.301 285.211 174.243 285.234 174.188C285.257 174.133 285.29 174.083 285.332 174.041C285.374 173.999 285.424 173.966 285.479 173.944C285.534 173.921 285.593 173.909 285.652 173.91H286.686C286.934 173.91 287.137 174.113 287.137 174.361V175.394C287.137 175.642 286.934 175.845 286.686 175.845ZM297.307 171.938H296.273C296.025 171.938 295.822 171.734 295.822 171.487V170.451C295.822 170.203 296.025 170 296.273 170H297.307C297.556 170 297.758 170.203 297.758 170.451V171.485C297.758 171.544 297.747 171.603 297.724 171.658C297.702 171.713 297.668 171.763 297.627 171.805C297.585 171.847 297.535 171.881 297.48 171.904C297.425 171.926 297.366 171.938 297.307 171.938ZM293.723 171.938H292.69C292.442 171.938 292.239 171.734 292.239 171.487V170.451C292.239 170.203 292.442 170 292.69 170H293.723C293.971 170 294.174 170.203 294.174 170.451V171.485C294.175 171.544 294.163 171.603 294.141 171.658C294.118 171.713 294.085 171.763 294.043 171.805C294.001 171.847 293.951 171.881 293.896 171.904C293.842 171.926 293.783 171.938 293.723 171.938ZM290.14 171.938H289.106C288.987 171.938 288.872 171.89 288.787 171.806C288.702 171.721 288.654 171.607 288.653 171.487V170.451C288.653 170.203 288.856 170 289.106 170H290.14C290.388 170 290.591 170.203 290.591 170.451V171.485C290.591 171.734 290.388 171.938 290.14 171.938ZM293.853 180.043H292.819C292.571 180.043 292.368 179.84 292.368 179.592V178.558C292.368 178.308 292.571 178.107 292.819 178.107H293.853C294.1 178.107 294.304 178.31 294.304 178.558V179.592C294.304 179.651 294.292 179.71 294.27 179.764C294.247 179.819 294.214 179.869 294.172 179.911C294.13 179.953 294.08 179.986 294.026 180.009C293.971 180.031 293.912 180.043 293.853 180.043ZM290.269 180.043H289.236C289.116 180.042 289.002 179.995 288.917 179.91C288.833 179.826 288.785 179.711 288.784 179.592V178.558C288.785 178.439 288.832 178.324 288.917 178.24C289.001 178.155 289.116 178.107 289.236 178.107H290.269C290.519 178.107 290.722 178.31 290.722 178.558V179.592C290.721 179.711 290.673 179.826 290.588 179.91C290.503 179.994 290.389 180.042 290.269 180.043Z" fill="#E1E4E5"/>
<path d="M129.818 88.8H129.78C129.556 91.8572 127.198 91.9044 127.198 91.9044C127.198 91.9044 129.798 91.9532 129.798 95.4856C129.798 91.9532 132.398 91.9044 132.398 91.9044C132.398 91.9044 130.041 91.8572 129.818 88.8ZM112.63 120H112.568C112.207 124.938 108.398 125.014 108.398 125.014C108.398 125.014 112.598 125.094 112.598 130.8C112.598 125.094 116.798 125.014 116.798 125.014C116.798 125.014 112.991 124.938 112.63 120ZM163.018 136.057H162.98C162.756 139.114 160.398 139.162 160.398 139.162C160.398 139.162 162.998 139.21 162.998 142.743C162.998 139.21 165.598 139.162 165.598 139.162C165.598 139.162 163.241 139.114 163.018 136.057ZM163.018 96H162.98C162.756 99.0572 160.398 99.1044 160.398 99.1044C160.398 99.1044 162.998 99.1532 162.998 102.686C162.998 99.1532 165.598 99.1044 165.598 99.1044C165.598 99.1044 163.241 99.0572 163.018 96ZM127.376 141.6H127.333C127.078 145.075 124.398 145.129 124.398 145.129C124.398 145.129 127.354 145.184 127.354 149.2C127.354 145.184 130.309 145.129 130.309 145.129C130.309 145.129 127.63 145.075 127.376 141.6Z" fill="#E1E4E5"/>
</g>
<defs>
<clipPath id="clip0_1345_9619">
<rect width="360" height="240" fill="white"/>
</clipPath>
</defs>
</svg>
