<svg width="16" height="17" viewBox="0 0 16 17" fill="none" xmlns="http://www.w3.org/2000/svg">
<g clip-path="url(#clip0_1003_5409)">
<path d="M8 0.0185089C3.58862 0.0185089 0 3.60713 0 8.01851C0 12.4299 3.58862 16.0185 8 16.0185C12.4114 16.0185 16 12.4299 16 8.01851C16 3.60713 12.4114 0.0185089 8 0.0185089Z" fill="#219653"/>
<path d="M12.0547 6.3232L7.72131 10.6564C7.59131 10.7865 7.42065 10.8519 7.25 10.8519C7.07935 10.8519 6.90869 10.7865 6.77869 10.6564L4.61206 8.48982C4.35132 8.2292 4.35132 7.80782 4.61206 7.5472C4.87268 7.28645 5.29395 7.28645 5.55469 7.5472L7.25 9.24251L11.1121 5.38057C11.3727 5.11983 11.7939 5.11983 12.0547 5.38057C12.3153 5.64119 12.3153 6.06245 12.0547 6.3232Z" fill="#FAFAFA"/>
</g>
<defs>
<clipPath id="clip0_1003_5409">
<rect width="16" height="16" fill="white" transform="translate(0 0.0185089)"/>
</clipPath>
</defs>
</svg>
