<svg width="46" height="28" viewBox="0 0 46 28" fill="none" xmlns="http://www.w3.org/2000/svg">
<rect width="46" height="28" rx="4" fill="#FFCC70"/>
<g clip-path="url(#clip0_249_938)">
<path d="M16.2019 4.82196H5.83204C4.82765 4.82196 4.0105 5.63907 4.0105 6.64347C4.0105 19.9329 3.93292 19.115 4.19959 19.3817C8.08203 23.2641 7.83587 23.0386 7.97165 23.1058C8.16582 23.2032 7.63448 23.174 16.2018 23.174C17.2062 23.174 18.0234 22.3568 18.0234 21.3524V6.64347C18.0234 5.63907 17.2063 4.82196 16.2019 4.82196ZM7.61421 20.9724L6.21208 19.5703H7.61421V20.9724ZM16.7338 21.3524C16.7338 21.6457 16.4952 21.8843 16.2019 21.8843H8.90386V18.9255C8.90386 18.5693 8.61514 18.2806 8.25904 18.2806H5.30014V6.64347C5.30014 6.35019 5.53873 6.11161 5.83204 6.11161H16.2019C16.4952 6.11161 16.7338 6.35019 16.7338 6.64347V21.3524ZM21.0117 6.64347V21.3525C21.0117 22.3569 20.1946 23.174 19.1902 23.174C18.8341 23.174 18.5454 22.8853 18.5454 22.5292C18.5454 22.173 18.8341 21.8843 19.1902 21.8843C19.4835 21.8843 19.7221 21.6458 19.7221 21.3525V6.64347C19.7221 6.35019 19.4835 6.11161 19.1902 6.11161C18.8341 6.11161 18.5454 5.82293 18.5454 5.46678C18.5454 5.11064 18.8341 4.82196 19.1902 4.82196C20.1946 4.82196 21.0117 5.63907 21.0117 6.64347ZM24 6.64347V21.3525C24 22.3569 23.1829 23.174 22.1785 23.174C21.8224 23.174 21.5336 22.8853 21.5336 22.5292C21.5336 22.173 21.8224 21.8843 22.1785 21.8843C22.4717 21.8843 22.7104 21.6458 22.7104 21.3525V6.64347C22.7104 6.35019 22.4718 6.11161 22.1785 6.11161C21.8224 6.11161 21.5336 5.82293 21.5336 5.46678C21.5336 5.11064 21.8224 4.82196 22.1785 4.82196C23.1829 4.82196 24 5.63907 24 6.64347Z" fill="black"/>
</g>
<path d="M40.966 19.172V20H35.224V19.172H37.78V10.856C37.672 11 37.504 11.156 37.276 11.324C37.048 11.492 36.79 11.654 36.502 11.81C36.214 11.966 35.92 12.092 35.62 12.188C35.32 12.284 35.05 12.332 34.81 12.332V11.432C35.11 11.432 35.422 11.354 35.746 11.198C36.082 11.03 36.4 10.844 36.7 10.64C37 10.424 37.246 10.226 37.438 10.046C37.642 9.866 37.756 9.758 37.78 9.722H38.68V19.172H40.966Z" fill="black"/>
<defs>
<clipPath id="clip0_249_938">
<rect width="20" height="20" fill="white" transform="translate(4 4)"/>
</clipPath>
</defs>
</svg>
