<svg width="203" height="60" viewBox="0 0 203 60" fill="none" xmlns="http://www.w3.org/2000/svg">
<g clip-path="url(#clip0_46_113)">
<path d="M11.073 43.9385C9.41915 43.2385 7.96531 42.2731 6.71531 41.0423C5.46532 39.8115 4.49225 38.3769 3.79225 36.7423C3.09225 35.1077 2.74609 33.3769 2.74609 31.5577C2.74609 29.7192 3.09609 27.9769 3.79225 26.3308C4.49225 24.6846 5.46532 23.2462 6.71531 22.0154C7.96531 20.7846 9.41915 19.8192 11.073 19.1192C12.7268 18.4192 14.4653 18.0731 16.2845 18.0731C18.0845 18.0731 19.8038 18.4115 21.4422 19.0923C23.0768 19.7731 24.5192 20.7269 25.773 21.9615C27.0038 23.1731 27.9807 24.6 28.6961 26.2346C29.4115 27.8692 29.7884 29.5885 29.8268 31.3923C29.8268 32.2731 29.5461 32.9808 28.9845 33.5154C28.423 34.05 27.7038 34.3154 26.8192 34.3154H9.58454C10.0422 35.6923 10.8999 36.8423 12.1499 37.7615C13.3615 38.6615 14.7422 39.1115 16.2845 39.1115C17.0922 39.1115 17.7653 39.0423 18.2961 38.9039C18.8307 38.7654 19.3422 38.55 19.8384 38.2577C20.4999 37.8731 21.0961 37.6769 21.6307 37.6769C22.4576 37.6769 23.173 38 23.7807 38.6423C24.0384 38.9385 24.2461 39.2769 24.3999 39.6615C24.5576 40.0462 24.6345 40.4423 24.6345 40.8462C24.6345 41.4539 24.4307 42.0154 24.0268 42.5269C23.623 43.0423 23.0538 43.4846 22.3192 43.85C21.5845 44.2192 20.6961 44.4962 19.6576 44.6923C18.6192 44.8846 17.4922 44.9808 16.2807 44.9808C14.4653 44.9846 12.7268 44.6346 11.073 43.9385ZM23.5345 29.1846C23.3153 28.4308 22.9845 27.7269 22.5422 27.0769C22.0999 26.4231 21.5692 25.8577 20.9422 25.3808C19.6538 24.4077 18.1384 23.9192 16.3922 23.9192C14.6999 23.9192 13.2038 24.4231 11.8961 25.4346C11.2884 25.8962 10.7692 26.45 10.3384 27.1039C9.90762 27.7577 9.58839 28.45 9.38839 29.1846H23.5345ZM47.1114 4.03847H69.5576V11.3192H48.4614C44.0307 11.3192 41.8153 13.0923 41.8153 16.6423C41.8153 17.9115 42.1922 18.9231 42.946 19.6769C43.8653 20.5962 45.2883 21.0539 47.2191 21.0539H58.4691C63.323 21.0539 66.7576 22.0269 68.7807 23.9769C70.6191 25.7423 71.5383 28.5923 71.5383 32.5231C71.5383 36.55 70.5191 39.5269 68.4768 41.4577C66.196 43.6077 62.4653 44.6846 57.2807 44.6846H34.5653V37.4039H55.9345C58.5268 37.4039 60.3076 36.9346 61.2845 35.9962C62.0922 35.2077 62.496 33.9 62.496 32.0808C62.496 30.8692 62.1922 29.9769 61.5845 29.4077C60.6653 28.5423 58.973 28.1115 56.5114 28.1115H46.446C41.7768 28.1115 38.3499 27.1462 36.1615 25.2154C33.973 23.2846 32.8807 20.3154 32.8807 16.3077C32.8807 12.2808 33.9115 9.28462 35.9692 7.31924C38.2692 5.13077 41.9807 4.03847 47.1114 4.03847ZM117.127 14.9H131.492V43.55C131.492 47.8346 130.508 50.9115 128.542 52.7885C126.758 54.4962 123.973 55.3539 120.188 55.3539H104.746V49.3154H118.781C121.942 49.3154 123.523 47.7731 123.523 44.6846H117.127C111.5 44.6846 107.384 43.1769 104.773 40.1615C102.604 37.6615 101.519 34.2346 101.519 29.8769C101.519 25.5385 102.611 22.0923 104.8 19.5385C107.446 16.4462 111.554 14.9 117.127 14.9ZM119.442 38.5308H123.523V21.2731C122.915 21.1269 122.323 21.0154 121.746 20.9423C121.165 20.8692 120.538 20.8308 119.858 20.8308C117.046 20.8308 114.758 21.5039 112.992 22.8423C110.861 24.4615 109.792 26.8769 109.792 30.0923C109.792 33.2346 110.619 35.4615 112.273 36.7654C113.761 37.9462 116.15 38.5308 119.442 38.5308ZM145.773 44.6808H137.969V14.9H152.723C157.154 14.9 160.342 15.7269 162.292 17.3808C164.242 19.0346 165.215 21.8385 165.215 25.7923V44.6808H157.246V26.8154C157.246 24.6077 156.969 23.1923 156.419 22.5692C155.792 21.8539 154.361 21.4923 152.119 21.4923H145.777V44.6808H145.773ZM191.631 44.6808H171.446V38.5308H187.992C190.785 38.5308 192.184 37.5308 192.184 35.5269C192.184 33.5962 190.788 32.6308 187.992 32.6308H181.154C178.819 32.6308 177.065 32.4923 175.888 32.2154C174.234 31.8308 173.011 31.0846 172.219 29.9808C171.319 28.7308 170.869 26.8654 170.869 24.3846C170.869 18.0615 174.369 14.9 181.373 14.9H198.219V21.05H184.323C182.319 21.05 180.977 21.2077 180.296 21.5192C179.396 21.9231 178.946 22.75 178.946 24C178.946 25.6539 180.196 26.4808 182.696 26.4808H189.865C192.823 26.4808 195.131 27.05 196.785 28.1885C198.808 29.5846 199.819 31.8 199.819 34.8346C199.819 37.6654 199.069 40.0154 197.573 41.8808C196.073 43.75 194.092 44.6808 191.631 44.6808ZM92.2614 15.2039L80.4306 15.5308C79.8845 15.5462 79.4576 16 79.473 16.5423L79.646 22.8308C79.6614 23.3769 80.1153 23.8039 80.6576 23.7885L92.4883 23.4615C92.7614 23.4539 93.0037 23.3385 93.1768 23.1539C93.3499 22.9692 93.4537 22.7192 93.446 22.45L93.273 16.1615C93.2576 15.6154 92.8037 15.1885 92.2614 15.2039ZM92.5422 25.4308L80.7114 25.7577C80.6922 25.7577 80.6768 25.7539 80.6614 25.7539L77.6037 35.8462C77.5345 36.0769 77.5499 36.3269 77.6537 36.5462L86.4691 55.6539L86.0037 38.7077C85.596 38.5769 85.2114 38.3654 84.8807 38.05C83.696 36.9269 83.6422 35.0539 84.7653 33.8654C85.8883 32.6808 87.7614 32.6269 88.9499 33.75C90.1345 34.8731 90.1883 36.7462 89.0653 37.9346C88.7537 38.2654 88.3768 38.5 87.9768 38.65L88.4422 55.5962L96.1922 36.0385C96.2807 35.8154 96.2845 35.5654 96.2037 35.3385L92.596 25.4269C92.5768 25.4269 92.5576 25.4308 92.5422 25.4308ZM90.5576 8.7577C90.5576 10.9846 88.7537 12.7885 86.5268 12.7885C84.2999 12.7885 82.496 10.9846 82.496 8.7577C82.496 6.53078 84.2999 4.72693 86.5268 4.72693C88.7537 4.72693 90.5576 6.53078 90.5576 8.7577Z" fill="black"/>
</g>
<defs>
<clipPath id="clip0_46_113">
<rect width="198.077" height="53.0769" fill="white" transform="translate(2.30762 3.46153)"/>
</clipPath>
</defs>
</svg>
