<svg width="226" height="197" viewBox="0 0 226 197" fill="none" xmlns="http://www.w3.org/2000/svg">
<g filter="url(#filter0_d_58_71)">
<path d="M33.623 47L240.107 95.0452L221.297 175.886C220.296 180.189 215.995 182.866 211.692 181.864L20.7917 137.445C16.4884 136.444 13.8116 132.144 14.8129 127.84L33.623 47Z" fill="white" shape-rendering="crispEdges"/>
<path d="M48.3253 79.3537C47.3201 79.1199 46.4781 78.7145 45.7992 78.1376C45.1319 77.5635 44.6161 76.8151 44.2517 75.8925L45.8958 74.7042C46.2781 75.6556 46.6955 76.3503 47.1481 76.7882C47.6006 77.2262 48.1892 77.5294 48.9138 77.698C49.3579 77.8014 49.7775 77.8251 50.1724 77.7691C50.5674 77.7132 50.8986 77.587 51.1661 77.3905C51.4336 77.194 51.6041 76.938 51.6775 76.6224C51.7264 76.412 51.7376 76.2052 51.711 76.0018C51.6844 75.7985 51.6128 75.6032 51.4962 75.4159C51.3913 75.2313 51.2369 75.0476 51.0331 74.8646C50.8409 74.6844 50.6038 74.5121 50.3217 74.3479C50.0423 74.172 49.712 74.0028 49.331 73.8402C48.7297 73.5648 48.2198 73.2675 47.8013 72.9483C47.3827 72.6292 47.0524 72.2751 46.8102 71.8861C46.5681 71.4971 46.4173 71.0862 46.3578 70.6535C46.301 70.2091 46.3311 69.7356 46.4481 69.233C46.6031 68.5668 46.9274 68.0201 47.4211 67.5928C47.9148 67.1656 48.5112 66.8793 49.2103 66.734C49.9238 66.5797 50.678 66.595 51.4728 66.7799C52.4195 67.0002 53.1999 67.3789 53.8142 67.9161C54.4428 68.4443 54.8801 69.1066 55.126 69.9031L53.4876 70.9079C53.2703 70.2536 52.9515 69.7175 52.5313 69.2993C52.1228 68.884 51.6205 68.6069 51.0245 68.4682C50.5686 68.3622 50.1549 68.3398 49.7834 68.4012C49.4118 68.4626 49.0967 68.5987 48.8382 68.8096C48.5941 69.0116 48.4326 69.282 48.3537 69.621C48.2966 69.8664 48.2903 70.1052 48.3349 70.3373C48.3822 70.5578 48.4803 70.7716 48.6292 70.9787C48.7925 71.1769 49.0229 71.3783 49.3202 71.583C49.6203 71.7761 49.9873 71.9724 50.4214 72.1719C51.0316 72.4618 51.5622 72.7762 52.0131 73.1152C52.4667 73.4425 52.8348 73.7931 53.1175 74.1668C53.4001 74.5406 53.5869 74.9291 53.6779 75.3322C53.7806 75.738 53.783 76.1513 53.6851 76.5721C53.5029 77.3551 53.164 77.9909 52.6685 78.4793C52.1729 78.9677 51.5553 79.2921 50.8156 79.4527C50.0787 79.6016 49.2486 79.5686 48.3253 79.3537ZM56.2031 81.002L58.8914 69.4486L60.6972 69.8688L58.0089 81.4221L56.2031 81.002ZM56.0259 73.1064L56.4338 71.3532L62.2894 72.7157L61.8815 74.4689L56.0259 73.1064ZM67.1588 83.5512L68.5539 77.5553C68.6736 77.0411 68.5831 76.5826 68.2825 76.18C67.9963 75.7685 67.5727 75.4974 67.0117 75.3669C66.4975 75.2472 66.0055 75.2436 65.5358 75.3561C65.0778 75.4713 64.629 75.7057 64.1894 76.0593L63.2881 74.6113C63.9761 74.1431 64.6697 73.8363 65.3688 73.6909C66.0796 73.5483 66.8032 73.5627 67.5395 73.734C68.2408 73.8972 68.8214 74.1555 69.2812 74.5089C69.7411 74.8623 70.0583 75.2996 70.2327 75.8207C70.4099 76.3301 70.4237 76.9062 70.2741 77.549L68.7892 83.9305L67.1588 83.5512ZM64.3655 83.086C63.7694 82.9473 63.2648 82.7067 62.8517 82.3642C62.4386 82.0216 62.1394 81.6132 61.9541 81.1389C61.7831 80.6555 61.7629 80.1334 61.8935 79.5724C62.0077 79.0815 62.196 78.6694 62.4583 78.3362C62.7207 78.003 63.0499 77.7531 63.4459 77.5865C63.8537 77.4227 64.3296 77.3363 64.8738 77.3274C65.4297 77.3212 66.0465 77.397 66.7244 77.5547L69.2841 78.1503L68.7918 79.5512L66.162 78.9393C65.8114 78.8577 65.4877 78.8193 65.1908 78.8242C64.9084 78.8201 64.6516 78.865 64.4202 78.959C64.2033 79.0441 64.0263 79.1692 63.8893 79.3345C63.755 79.4881 63.6593 79.6876 63.6022 79.933C63.5424 80.1901 63.5536 80.433 63.636 80.6616C63.721 80.8785 63.8623 81.0654 64.0599 81.2223C64.2575 81.3791 64.5024 81.4916 64.7946 81.5596C65.2154 81.6575 65.6291 81.6798 66.0357 81.6266C66.4568 81.5644 66.8433 81.4387 67.1953 81.2496C67.559 81.0631 67.8594 80.8312 68.0965 80.5537L68.2439 81.8262C67.9033 82.1782 67.5165 82.4639 67.0834 82.6835C66.6504 82.9031 66.2031 83.0516 65.7416 83.129C65.28 83.2064 64.8213 83.1921 64.3655 83.086ZM71.4706 88.805L74.3284 84.9422L74.0114 86.3839L71.8331 74.9363L73.9369 75.4259L75.2374 82.8621C75.2687 82.9926 75.2966 83.19 75.3214 83.4545C75.3488 83.7073 75.3645 83.9574 75.3686 84.2047L74.8883 84.2039C75.0389 83.9802 75.1836 83.7551 75.3226 83.5287C75.4732 83.305 75.6179 83.08 75.7569 82.8536L79.7048 76.7679L81.8436 77.2656L75.9152 85.5886L73.4166 89.2578L71.4706 88.805ZM86.4224 88.0335L89.2779 75.7613L90.9785 76.157L96.1446 87.9486L95.8274 88.0411C95.857 87.5429 95.9161 86.9714 96.0045 86.3266C96.1046 85.6846 96.2314 84.981 96.3848 84.2159C96.5381 83.4507 96.7141 82.6416 96.9126 81.7884L97.8509 77.7561L99.7443 78.1966L96.8888 90.4688L95.1531 90.065L90.0241 78.6701L90.2741 78.4695C90.1492 79.3768 90.0435 80.1223 89.957 80.7058C89.8732 81.2777 89.8036 81.7359 89.7481 82.0803C89.6926 82.4246 89.6417 82.6962 89.5955 82.8949C89.5637 83.0846 89.5328 83.2437 89.5029 83.3723L88.3158 88.474L86.4224 88.0335ZM103.965 92.3002C103.065 92.0908 102.306 91.6986 101.689 91.1236C101.085 90.5397 100.662 89.8437 100.419 89.0355C100.178 88.2157 100.166 87.3441 100.38 86.4208C100.595 85.4975 100.99 84.7269 101.565 84.1091C102.143 83.4797 102.83 83.042 103.626 82.7961C104.437 82.5412 105.293 82.5185 106.193 82.7279C107.081 82.9346 107.827 83.3299 108.43 83.9138C109.048 84.4888 109.477 85.1862 109.717 86.006C109.961 86.8142 109.975 87.6799 109.76 88.6032C109.545 89.5266 109.149 90.303 108.571 90.9324C107.996 91.5502 107.303 91.9865 106.492 92.2414C105.696 92.4873 104.854 92.5069 103.965 92.3002ZM104.349 90.6522C104.898 90.78 105.42 90.7598 105.915 90.5916C106.413 90.4118 106.839 90.1166 107.193 89.7062C107.55 89.2841 107.792 88.7737 107.919 88.1749C108.072 87.5698 108.08 87.005 107.944 86.4804C107.81 85.9441 107.558 85.4912 107.188 85.1218C106.818 84.7523 106.358 84.5037 105.809 84.3759C105.26 84.2481 104.73 84.2727 104.221 84.4499C103.726 84.6181 103.3 84.9132 102.943 85.3353C102.589 85.7457 102.348 86.2503 102.221 86.8491C102.071 87.4425 102.063 88.0073 102.197 88.5436C102.333 89.0682 102.585 89.5211 102.952 89.9022C103.334 90.2744 103.799 90.5244 104.349 90.6522ZM111.794 93.937L114.483 82.3837L116.288 82.8038L113.6 94.3572L111.794 93.937ZM111.617 86.0414L112.025 84.2883L117.881 85.6508L117.473 87.4039L111.617 86.0414ZM117.681 95.3068L119.823 86.1027L121.629 86.5229L119.487 95.727L117.681 95.3068ZM121.173 84.273C120.787 84.1833 120.512 84.0146 120.348 83.7669C120.184 83.5193 120.144 83.2143 120.228 82.852C120.307 82.513 120.476 82.2628 120.735 82.1014C121.006 81.9427 121.329 81.9069 121.703 81.9939C122.089 82.0836 122.364 82.2523 122.528 82.5C122.692 82.7476 122.732 83.0526 122.647 83.4149C122.569 83.7539 122.394 84.0027 122.123 84.1614C121.863 84.3228 121.547 84.36 121.173 84.273ZM123.262 96.6054L125.644 86.3669C125.767 85.8409 125.992 85.4006 126.321 85.0459C126.65 84.6912 127.046 84.4446 127.51 84.306C127.973 84.1675 128.474 84.1607 129.011 84.2858C129.385 84.3729 129.72 84.5246 130.014 84.741C130.309 84.9574 130.528 85.2056 130.673 85.4855L129.737 86.7278C129.618 86.5522 129.474 86.4017 129.306 86.2764C129.152 86.1421 128.994 86.0559 128.83 86.0178C128.585 85.9607 128.365 85.9527 128.17 85.9937C127.991 86.0257 127.841 86.1141 127.721 86.2587C127.604 86.3916 127.519 86.569 127.467 86.7911L125.085 97.0296L124.174 96.8175C124.022 96.7821 123.87 96.7468 123.718 96.7114C123.566 96.6761 123.414 96.6407 123.262 96.6054ZM123.507 88.8819L123.894 87.2164L129.364 88.4891L128.976 90.1546L123.507 88.8819ZM129.451 98.0454L131.592 88.8412L133.398 89.2614L131.256 98.4655L129.451 98.0454ZM132.942 87.0115C132.556 86.9218 132.281 86.7531 132.117 86.5054C131.953 86.2578 131.913 85.9528 131.997 85.5905C132.076 85.2515 132.245 85.0014 132.505 84.8399C132.776 84.6812 133.098 84.6454 133.472 84.7324C133.858 84.8221 134.133 84.9908 134.297 85.2385C134.461 85.4861 134.501 85.7911 134.417 86.1534C134.338 86.4924 134.163 86.7412 133.892 86.8999C133.633 87.0613 133.316 87.0985 132.942 87.0115ZM138.279 100.284C137.332 100.064 136.537 99.6696 135.893 99.1009C135.264 98.5232 134.82 97.8348 134.563 97.0356C134.317 96.2392 134.3 95.3851 134.512 94.4735C134.681 93.7488 134.951 93.1157 135.324 92.574C135.696 92.0323 136.137 91.5928 136.647 91.2555C137.171 90.9093 137.746 90.6859 138.374 90.5855C139.015 90.476 139.675 90.5001 140.353 90.6579C140.949 90.7965 141.477 91.0426 141.937 91.396C142.399 91.7377 142.771 92.1508 143.053 92.6352C143.346 93.1224 143.528 93.6637 143.599 94.2593C143.684 94.8458 143.646 95.4592 143.485 96.0993L143.288 96.8666L135.767 95.1166L135.698 93.5852L142.062 95.066L141.73 95.3028L141.828 94.882C141.882 94.4882 141.834 94.1135 141.683 93.7579C141.531 93.4024 141.307 93.0975 141.008 92.8433C140.71 92.5891 140.362 92.4158 139.965 92.3234C139.334 92.1765 138.774 92.1755 138.284 92.3203C137.797 92.4534 137.388 92.7279 137.057 93.1438C136.729 93.5479 136.486 94.0889 136.329 94.7668C136.179 95.4097 136.183 96.0019 136.34 96.5437C136.5 97.0738 136.796 97.5245 137.227 97.8958C137.658 98.2672 138.195 98.5276 138.838 98.6772C139.294 98.7833 139.732 98.8052 140.153 98.743C140.586 98.6835 141.076 98.5081 141.625 98.2168L142.238 99.7087C141.893 99.924 141.491 100.089 141.033 100.204C140.586 100.322 140.12 100.393 139.635 100.415C139.163 100.429 138.711 100.385 138.279 100.284ZM148.096 102.569C147.254 102.373 146.548 101.993 145.977 101.429C145.42 100.856 145.032 100.168 144.812 99.3651C144.595 98.5507 144.594 97.6818 144.809 96.7585C145.024 95.8352 145.401 95.0605 145.941 94.4346C146.495 93.7997 147.147 93.3539 147.897 93.0971C148.649 92.8286 149.441 92.7909 150.27 92.984C150.726 93.0901 151.147 93.268 151.532 93.5179C151.932 93.7588 152.271 94.0472 152.551 94.3832C152.832 94.7075 153.031 95.0433 153.148 95.3907C153.278 95.7292 153.308 96.0503 153.238 96.3542L152.704 96.2669L154.136 90.1133L155.941 90.5334L152.923 103.507L151.117 103.087L151.627 100.895L151.977 100.977C151.912 101.257 151.753 101.516 151.501 101.753C151.251 101.978 150.942 102.171 150.572 102.332C150.214 102.495 149.814 102.599 149.372 102.644C148.942 102.692 148.516 102.666 148.096 102.569ZM148.704 101.065C149.253 101.193 149.771 101.166 150.257 100.983C150.743 100.801 151.159 100.497 151.504 100.072C151.864 99.6383 152.116 99.1116 152.26 98.4922C152.404 97.8727 152.409 97.2949 152.275 96.7586C152.156 96.2133 151.918 95.7514 151.563 95.373C151.207 94.9946 150.755 94.7415 150.205 94.6137C149.656 94.4859 149.138 94.5133 148.652 94.6959C148.166 94.8785 147.743 95.1867 147.384 95.6204C147.039 96.0452 146.794 96.5674 146.65 97.1868C146.506 97.8063 146.493 98.3886 146.613 98.9339C146.747 99.4702 146.991 99.9276 147.347 100.306C147.702 100.684 148.155 100.938 148.704 101.065ZM156.1 104.449C155.714 104.36 155.442 104.179 155.283 103.908C155.127 103.626 155.098 103.274 155.196 102.853C155.286 102.467 155.47 102.178 155.749 101.984C156.029 101.79 156.349 101.735 156.712 101.82C157.097 101.909 157.368 102.096 157.524 102.378C157.683 102.649 157.713 102.995 157.615 103.416C157.526 103.802 157.341 104.091 157.062 104.285C156.783 104.479 156.462 104.534 156.1 104.449Z" fill="black"/>
<rect x="38.1021" y="98.3511" width="180" height="26" rx="13" transform="rotate(13.0986 38.1021 98.3511)" fill="#28C76F" fill-opacity="0.2"/>
<path d="M54.776 120.855C53.9851 120.671 53.3246 120.36 52.7944 119.92C52.2754 119.473 51.8802 118.907 51.6086 118.221L52.5689 117.553C52.8384 118.248 53.1708 118.776 53.5661 119.136C53.9704 119.499 54.4863 119.753 55.1135 119.899C55.5135 119.992 55.8884 120.007 56.2383 119.945C56.5973 119.885 56.8997 119.759 57.1456 119.567C57.3915 119.375 57.5494 119.129 57.6192 118.829C57.6657 118.629 57.6717 118.439 57.637 118.258C57.6114 118.08 57.5408 117.91 57.4249 117.749C57.3182 117.59 57.173 117.432 56.9893 117.274C56.8056 117.116 56.5869 116.965 56.3332 116.819C56.0907 116.667 55.8108 116.511 55.4935 116.351C55.0441 116.141 54.6611 115.913 54.3447 115.667C54.0373 115.423 53.7873 115.158 53.5948 114.874C53.4022 114.59 53.2807 114.288 53.2302 113.97C53.1818 113.642 53.201 113.292 53.2877 112.92C53.4062 112.411 53.6518 111.993 54.0245 111.668C54.4064 111.345 54.8646 111.126 55.3993 111.011C55.9431 110.897 56.5195 110.912 57.1286 111.054C57.8649 111.225 58.4604 111.507 58.9151 111.9C59.3789 112.296 59.7117 112.781 59.9135 113.355L58.9754 113.927C58.784 113.432 58.5147 113.024 58.1676 112.704C57.8317 112.377 57.4001 112.152 56.8729 112.029C56.4638 111.934 56.0843 111.917 55.7344 111.98C55.3845 112.042 55.0901 112.175 54.8512 112.378C54.6144 112.572 54.459 112.828 54.3849 113.146C54.332 113.373 54.3243 113.592 54.3617 113.802C54.4103 114.005 54.5051 114.195 54.6461 114.371C54.7871 114.548 54.9812 114.722 55.2286 114.895C55.4759 115.067 55.7764 115.238 56.1301 115.407C56.6116 115.643 57.0334 115.89 57.3953 116.146C57.7663 116.405 58.0673 116.677 58.2984 116.96C58.5294 117.244 58.6859 117.539 58.7679 117.846C58.8499 118.152 58.8507 118.478 58.7703 118.824C58.6392 119.387 58.383 119.85 58.0018 120.212C57.6318 120.566 57.1693 120.804 56.6143 120.924C56.0614 121.035 55.4487 121.012 54.776 120.855ZM60.0366 121.936L61.7023 114.777L62.7386 115.018L61.0729 122.177L60.0366 121.936ZM62.5971 113.217C62.3607 113.162 62.1892 113.055 62.0824 112.896C61.9869 112.73 61.9645 112.538 62.0153 112.32C62.066 112.102 62.1699 111.944 62.3267 111.846C62.4948 111.742 62.697 111.717 62.9334 111.772C63.1697 111.827 63.3367 111.933 63.4344 112.09C63.5411 112.249 63.5681 112.442 63.5152 112.669C63.4665 112.878 63.3627 113.036 63.2037 113.143C63.0447 113.249 62.8425 113.274 62.5971 113.217ZM65.6379 126.588C65.1289 126.47 64.6525 126.273 64.2088 125.997C63.7741 125.723 63.4385 125.415 63.202 125.073L63.7742 124.343C63.9919 124.643 64.2838 124.912 64.65 125.151C65.0252 125.392 65.4219 125.56 65.8401 125.658C66.3491 125.776 66.8133 125.779 67.2325 125.666C67.6518 125.552 68.0103 125.329 68.3083 124.996C68.6062 124.663 68.8186 124.223 68.9455 123.678L69.3104 122.11L69.4372 122.183C69.2911 122.522 69.0468 122.81 68.7043 123.047C68.3708 123.286 67.9875 123.45 67.5543 123.541C67.1302 123.634 66.7045 123.631 66.2773 123.532C65.6046 123.375 65.0371 123.075 64.5748 122.632C64.1237 122.182 63.8081 121.644 63.6281 121.018C63.4571 120.393 63.4541 119.727 63.6191 119.018C63.7862 118.3 64.0843 117.698 64.5133 117.213C64.9535 116.722 65.4742 116.378 66.0755 116.183C66.6789 115.978 67.3033 115.951 67.9488 116.101C68.2306 116.167 68.4948 116.266 68.7415 116.4C68.9882 116.535 69.2093 116.696 69.4049 116.885C69.6025 117.066 69.7732 117.259 69.9169 117.465C70.0607 117.67 70.1694 117.883 70.2432 118.101C70.3169 118.319 70.3498 118.528 70.3417 118.728L70.0941 118.742L70.5519 116.836L71.5746 117.074L69.9977 123.851C69.8666 124.415 69.6639 124.895 69.3896 125.291C69.1223 125.698 68.7947 126.015 68.4067 126.241C68.0258 126.478 67.5991 126.623 67.1268 126.676C66.6615 126.74 66.1652 126.711 65.6379 126.588ZM66.598 122.586C67.0798 122.698 67.5335 122.684 67.9591 122.543C68.3959 122.395 68.7664 122.141 69.0707 121.781C69.3862 121.414 69.6063 120.962 69.7311 120.425C69.8559 119.889 69.8568 119.391 69.7338 118.931C69.622 118.464 69.4027 118.068 69.0759 117.743C68.7582 117.42 68.3539 117.201 67.863 117.087C67.3721 116.973 66.9027 116.993 66.4547 117.148C66.0179 117.295 65.6418 117.553 65.3263 117.92C65.0129 118.278 64.7938 118.726 64.6691 119.262C64.5485 119.78 64.5486 120.274 64.6695 120.743C64.7925 121.202 65.0174 121.595 65.3442 121.92C65.6801 122.247 66.098 122.469 66.598 122.586ZM71.8559 124.686L73.5216 117.527L74.5579 117.768L74.2026 119.295L73.9695 119.371C74.1435 119.076 74.393 118.827 74.718 118.625C75.0429 118.422 75.4108 118.283 75.8216 118.206C76.2345 118.12 76.6409 118.124 77.0409 118.217C77.5773 118.341 78.0029 118.551 78.3179 118.844C78.6441 119.131 78.8529 119.51 78.9444 119.982C79.0359 120.454 79.0055 121.017 78.8532 121.671L77.8283 126.076L76.792 125.834L77.801 121.498C77.9089 121.035 77.9295 120.637 77.863 120.305C77.8055 119.976 77.6608 119.712 77.4289 119.514C77.2061 119.319 76.8982 119.18 76.5052 119.098C76.1961 119.026 75.8981 119.01 75.6112 119.048C75.3334 119.089 75.079 119.174 74.8479 119.302C74.6189 119.421 74.4256 119.573 74.2678 119.756C74.1122 119.931 74.0111 120.118 73.9646 120.318L72.8922 124.927L72.3877 124.81C72.3059 124.791 72.2195 124.77 72.1286 124.749C72.0377 124.728 71.9468 124.707 71.8559 124.686ZM84.2528 127.57L85.3633 122.798C85.4712 122.334 85.3942 121.923 85.1326 121.566C84.8709 121.208 84.4719 120.966 83.9355 120.841C83.4901 120.738 83.0644 120.735 82.6585 120.832C82.2526 120.929 81.8664 121.127 81.5 121.425L80.9768 120.584C81.4938 120.216 82.0196 119.974 82.5543 119.859C83.098 119.746 83.6563 119.756 84.229 119.889C84.7744 120.016 85.226 120.217 85.5836 120.492C85.9413 120.767 86.1845 121.101 86.3132 121.495C86.451 121.891 86.4628 122.335 86.3486 122.826L85.1937 127.789L84.2528 127.57ZM81.7666 127.136C81.303 127.028 80.9106 126.841 80.5892 126.574C80.2679 126.308 80.0352 125.99 79.8911 125.621C79.7581 125.245 79.7424 124.839 79.844 124.403C79.9264 124.048 80.0631 123.749 80.2538 123.506C80.4536 123.265 80.7019 123.084 80.9988 122.961C81.2956 122.838 81.65 122.777 82.0621 122.777C82.4762 122.768 82.9333 122.822 83.4333 122.938L85.6968 123.465L85.4151 124.305L83.097 123.765C82.7789 123.691 82.4907 123.653 82.2326 123.651C81.9835 123.65 81.7589 123.689 81.5587 123.767C81.3697 123.838 81.2107 123.945 81.0817 124.087C80.9639 124.223 80.8797 124.399 80.8289 124.618C80.7697 124.872 80.7804 125.114 80.8612 125.344C80.9531 125.566 81.0955 125.758 81.2883 125.918C81.4922 126.07 81.7351 126.18 82.017 126.245C82.3897 126.332 82.7545 126.35 83.1113 126.299C83.4703 126.238 83.8035 126.124 84.1109 125.956C84.4295 125.781 84.7 125.566 84.9222 125.311L85.0562 126.032C84.7759 126.331 84.454 126.582 84.0905 126.785C83.7292 126.979 83.3487 127.111 82.9492 127.181C82.5608 127.244 82.1666 127.229 81.7666 127.136ZM88.0457 128.453L90.1365 119.467L91.1729 119.708L89.082 128.694L88.0457 128.453ZM87.8267 121.919L88.0615 120.91L92.534 121.951L92.2992 122.96L87.8267 121.919ZM94.6415 130.131C94.1143 130.009 93.6852 129.794 93.3541 129.487C93.0252 129.171 92.8048 128.779 92.6931 128.313C92.5925 127.839 92.6141 127.293 92.758 126.675L93.7891 122.243L94.8254 122.484L93.8545 126.657C93.6874 127.375 93.7231 127.963 93.9615 128.421C94.2112 128.872 94.636 129.167 95.2359 129.307C95.5268 129.374 95.8021 129.386 96.0617 129.341C96.3325 129.289 96.5789 129.198 96.8009 129.067C97.0229 128.937 97.2083 128.779 97.3569 128.593C97.5168 128.4 97.6221 128.194 97.6728 127.976L98.7389 123.395L99.7752 123.636L98.1095 130.795L97.0868 130.557L97.4349 128.999L97.6648 128.938C97.4795 129.239 97.2223 129.501 96.8931 129.721C96.5751 129.935 96.2199 130.082 95.8273 130.163C95.4459 130.237 95.0506 130.227 94.6415 130.131ZM100.059 131.248L101.725 124.09L102.762 124.331L102.293 126.407L102.253 126.023C102.42 125.717 102.645 125.449 102.929 125.218C103.222 124.989 103.546 124.83 103.902 124.74C104.261 124.641 104.631 124.636 105.013 124.725C105.167 124.761 105.31 124.809 105.44 124.868C105.572 124.917 105.679 124.971 105.761 125.029L105.225 126.097C105.109 126.022 104.985 125.955 104.855 125.896C104.736 125.83 104.618 125.783 104.5 125.756C104.218 125.69 103.941 125.688 103.668 125.749C103.406 125.803 103.167 125.905 102.949 126.056C102.732 126.207 102.545 126.393 102.388 126.616C102.242 126.831 102.14 127.066 102.08 127.32L101.109 131.493L100.059 131.248ZM108.054 133.252C107.336 133.085 106.735 132.783 106.253 132.344C105.772 131.897 105.437 131.359 105.248 130.731C105.068 130.104 105.061 129.437 105.226 128.728C105.355 128.173 105.559 127.689 105.837 127.274C106.127 126.853 106.464 126.515 106.849 126.259C107.246 125.997 107.683 125.826 108.162 125.745C108.641 125.665 109.139 125.685 109.657 125.806C110.112 125.912 110.515 126.092 110.868 126.346C111.23 126.603 111.521 126.92 111.74 127.297C111.961 127.664 112.1 128.075 112.157 128.529C112.216 128.974 112.179 129.445 112.044 129.94L111.91 130.455L105.938 129.066L105.916 128.17L111.248 129.41L111.003 129.597L111.096 129.26C111.169 128.865 111.14 128.494 111.01 128.147C110.88 127.801 110.675 127.504 110.397 127.257C110.129 127.013 109.808 126.847 109.435 126.76C108.908 126.638 108.427 126.646 107.992 126.784C107.56 126.913 107.196 127.159 106.901 127.522C106.617 127.877 106.405 128.336 106.264 128.897C106.142 129.463 106.146 129.981 106.276 130.452C106.408 130.914 106.651 131.311 107.005 131.643C107.371 131.967 107.826 132.193 108.371 132.32C108.762 132.411 109.141 132.432 109.507 132.383C109.875 132.325 110.268 132.181 110.685 131.953L111.032 132.81C110.763 132.977 110.459 133.108 110.121 133.201C109.794 133.288 109.452 133.338 109.095 133.351C108.737 133.363 108.39 133.33 108.054 133.252ZM114.998 134.868C114.398 134.728 113.882 134.498 113.448 134.177C113.017 133.847 112.698 133.447 112.492 132.977L113.343 132.528C113.531 132.917 113.787 133.235 114.113 133.483C114.438 133.732 114.833 133.91 115.297 134.018C115.533 134.073 115.748 134.094 115.943 134.082C116.14 134.06 116.313 134.014 116.464 133.944C116.616 133.865 116.736 133.763 116.822 133.639C116.919 133.509 116.987 133.362 117.025 133.198C117.095 132.898 117.033 132.63 116.839 132.393C116.733 132.272 116.576 132.145 116.367 132.01C116.17 131.868 115.922 131.72 115.623 131.564C115.16 131.331 114.778 131.099 114.478 130.866C114.188 130.626 113.973 130.38 113.83 130.126C113.723 129.929 113.655 129.726 113.627 129.518C113.599 129.31 113.613 129.084 113.67 128.838C113.761 128.447 113.951 128.127 114.238 127.878C114.526 127.629 114.876 127.466 115.287 127.389C115.709 127.305 116.16 127.319 116.642 127.431C116.97 127.507 117.282 127.628 117.579 127.793C117.885 127.96 118.154 128.161 118.387 128.398C118.619 128.634 118.807 128.898 118.95 129.19L118.184 129.702C118.046 129.468 117.885 129.258 117.698 129.071C117.523 128.877 117.33 128.717 117.12 128.592C116.912 128.457 116.698 128.364 116.48 128.313C116.244 128.258 116.024 128.236 115.82 128.246C115.619 128.247 115.438 128.282 115.279 128.35C115.13 128.411 115.008 128.503 114.913 128.624C114.82 128.737 114.753 128.879 114.713 129.052C114.692 129.181 114.694 129.316 114.719 129.456C114.746 129.587 114.8 129.705 114.881 129.81C114.985 129.94 115.144 130.082 115.357 130.237C115.572 130.383 115.84 130.531 116.159 130.682C116.57 130.893 116.91 131.101 117.178 131.307C117.448 131.504 117.653 131.715 117.793 131.939C117.945 132.147 118.037 132.37 118.068 132.607C118.099 132.844 118.082 133.104 118.017 133.386C117.921 133.795 117.728 134.133 117.436 134.4C117.145 134.659 116.789 134.83 116.367 134.914C115.945 134.997 115.489 134.982 114.998 134.868ZM127.267 137.723C126.595 137.566 126.004 137.304 125.495 136.937C124.996 136.571 124.588 136.122 124.271 135.588C123.964 135.057 123.766 134.465 123.678 133.812C123.6 133.161 123.644 132.477 123.811 131.758C123.972 131.068 124.239 130.454 124.613 129.918C124.989 129.373 125.437 128.931 125.957 128.592C126.487 128.246 127.063 128.016 127.684 127.902C128.305 127.787 128.951 127.809 129.624 127.965C130.088 128.073 130.522 128.246 130.926 128.484C131.331 128.722 131.682 129.005 131.98 129.332C132.286 129.663 132.525 130.015 132.696 130.39L131.786 130.969C131.492 130.46 131.139 130.042 130.726 129.716C130.324 129.383 129.873 129.159 129.373 129.042C128.864 128.924 128.369 128.909 127.889 128.999C127.408 129.088 126.965 129.263 126.559 129.523C126.163 129.785 125.819 130.132 125.527 130.562C125.237 130.983 125.029 131.467 124.902 132.012C124.769 132.585 124.738 133.129 124.81 133.644C124.884 134.15 125.041 134.608 125.281 135.018C125.532 135.422 125.859 135.766 126.262 136.052C126.665 136.337 127.139 136.543 127.685 136.67C128.021 136.748 128.358 136.784 128.695 136.776C129.034 136.759 129.36 136.7 129.67 136.6C129.981 136.5 130.276 136.367 130.554 136.202L130.906 137.218C130.622 137.411 130.279 137.566 129.878 137.684C129.479 137.792 129.053 137.851 128.601 137.861C128.157 137.872 127.713 137.827 127.267 137.723ZM135.471 139.632C134.771 139.469 134.181 139.164 133.701 138.717C133.231 138.262 132.902 137.721 132.713 137.093C132.526 136.455 132.516 135.777 132.683 135.059C132.85 134.341 133.157 133.741 133.604 133.261C134.052 132.78 134.585 132.445 135.204 132.253C135.833 132.064 136.497 132.051 137.197 132.214C137.897 132.377 138.483 132.681 138.954 133.126C139.435 133.573 139.765 134.11 139.945 134.736C140.134 135.365 140.145 136.038 139.978 136.756C139.811 137.474 139.503 138.078 139.054 138.568C138.615 139.051 138.081 139.391 137.45 139.589C136.831 139.78 136.171 139.795 135.471 139.632ZM135.693 138.677C136.193 138.794 136.666 138.779 137.112 138.634C137.569 138.481 137.955 138.221 138.271 137.854C138.596 137.489 138.815 137.041 138.928 136.512C139.062 135.978 139.063 135.48 138.931 135.018C138.808 134.558 138.574 134.163 138.229 133.834C137.893 133.507 137.475 133.285 136.975 133.168C136.475 133.052 135.998 133.066 135.543 133.209C135.097 133.354 134.712 133.61 134.387 133.975C134.065 134.331 133.847 134.774 133.733 135.303C133.601 135.828 133.6 136.326 133.73 136.797C133.86 137.269 134.092 137.672 134.426 138.009C134.771 138.338 135.193 138.561 135.693 138.677ZM140.62 140.686L142.285 133.527L143.322 133.768L142.958 135.394L142.69 135.432C142.863 135.185 143.061 134.972 143.284 134.795C143.51 134.607 143.754 134.463 144.017 134.361C144.292 134.253 144.571 134.184 144.856 134.154C145.15 134.127 145.438 134.146 145.72 134.211C146.12 134.304 146.458 134.455 146.736 134.663C147.024 134.865 147.237 135.125 147.373 135.444C147.519 135.765 147.588 136.146 147.582 136.585L147.391 136.541L147.527 136.328C147.691 136.117 147.882 135.936 148.099 135.785C148.327 135.628 148.572 135.503 148.833 135.41C149.103 135.32 149.374 135.268 149.645 135.254C149.928 135.234 150.197 135.253 150.451 135.312C150.978 135.435 151.395 135.642 151.701 135.934C152.007 136.225 152.2 136.61 152.28 137.089C152.362 137.559 152.326 138.125 152.172 138.789L151.16 143.139L150.124 142.897L151.126 138.588C151.287 137.898 151.263 137.36 151.056 136.977C150.848 136.593 150.467 136.336 149.912 136.207C149.621 136.14 149.337 136.126 149.059 136.167C148.793 136.201 148.548 136.283 148.326 136.413C148.104 136.544 147.919 136.702 147.77 136.888C147.622 137.074 147.52 137.285 147.465 137.521L146.415 142.034L145.365 141.79L146.371 137.468C146.525 136.804 146.499 136.276 146.294 135.883C146.088 135.49 145.722 135.232 145.194 135.11C144.894 135.04 144.605 135.025 144.328 135.066C144.059 135.109 143.81 135.19 143.581 135.309C143.361 135.431 143.177 135.584 143.028 135.77C142.882 135.947 142.784 136.14 142.736 136.349L141.669 140.93L140.62 140.686ZM152.31 146.612L154.684 136.412L155.72 136.653L155.292 138.552L155.117 138.439C155.28 138.113 155.526 137.835 155.858 137.605C156.198 137.378 156.58 137.218 157.004 137.125C157.438 137.034 157.863 137.037 158.281 137.134C158.936 137.287 159.481 137.581 159.916 138.018C160.351 138.454 160.649 138.984 160.811 139.606C160.973 140.228 160.971 140.894 160.807 141.603C160.642 142.312 160.348 142.914 159.926 143.41C159.506 143.897 159.003 144.245 158.418 144.454C157.844 144.655 157.244 144.683 156.616 144.537C156.171 144.434 155.765 144.244 155.398 143.967C155.04 143.692 154.751 143.37 154.53 143.003C154.318 142.637 154.22 142.274 154.237 141.914L154.521 141.865L153.36 146.856L152.31 146.612ZM156.675 143.545C157.157 143.657 157.611 143.638 158.039 143.489C158.476 143.341 158.847 143.083 159.154 142.713C159.469 142.346 159.688 141.898 159.811 141.371C159.932 140.853 159.93 140.364 159.807 139.904C159.694 139.446 159.478 139.056 159.16 138.733C158.842 138.41 158.438 138.191 157.947 138.077C157.474 137.967 157.024 137.987 156.597 138.136C156.18 138.279 155.815 138.53 155.502 138.888C155.197 139.248 154.983 139.697 154.858 140.233C154.735 140.76 154.73 141.257 154.842 141.724C154.965 142.184 155.181 142.574 155.489 142.895C155.807 143.218 156.202 143.435 156.675 143.545ZM161.61 145.57L163.957 135.48L164.994 135.721L162.646 145.811L161.61 145.57ZM167.803 147.155C167.085 146.988 166.485 146.685 166.002 146.247C165.522 145.8 165.187 145.262 164.998 144.633C164.818 144.007 164.81 143.339 164.975 142.63C165.104 142.076 165.308 141.591 165.587 141.177C165.876 140.756 166.214 140.417 166.599 140.162C166.995 139.9 167.433 139.728 167.912 139.648C168.39 139.568 168.889 139.588 169.407 139.709C169.861 139.814 170.265 139.994 170.618 140.249C170.98 140.506 171.27 140.822 171.489 141.199C171.71 141.567 171.849 141.978 171.907 142.432C171.966 142.877 171.928 143.347 171.794 143.843L171.66 144.358L165.687 142.968L165.666 142.072L170.997 143.313L170.752 143.5L170.845 143.162C170.918 142.767 170.889 142.396 170.759 142.05C170.629 141.703 170.425 141.407 170.147 141.16C169.878 140.915 169.557 140.75 169.185 140.663C168.657 140.54 168.176 140.548 167.742 140.687C167.309 140.816 166.945 141.062 166.65 141.424C166.366 141.78 166.154 142.239 166.014 142.8C165.892 143.366 165.896 143.884 166.026 144.355C166.158 144.817 166.401 145.214 166.755 145.545C167.12 145.87 167.576 146.096 168.121 146.223C168.512 146.314 168.89 146.335 169.256 146.286C169.624 146.227 170.017 146.084 170.434 145.855L170.781 146.712C170.512 146.88 170.209 147.01 169.871 147.104C169.544 147.191 169.202 147.241 168.844 147.253C168.487 147.266 168.14 147.233 167.803 147.155ZM173.402 148.314L175.493 139.328L176.529 139.569L174.439 148.555L173.402 148.314ZM173.183 141.78L173.418 140.771L177.891 141.812L177.656 142.821L173.183 141.78ZM180.627 150.139C179.909 149.972 179.308 149.669 178.826 149.231C178.345 148.784 178.01 148.246 177.821 147.617C177.641 146.991 177.634 146.323 177.799 145.614C177.928 145.059 178.132 144.575 178.41 144.161C178.7 143.739 179.037 143.401 179.422 143.146C179.819 142.883 180.256 142.712 180.735 142.632C181.214 142.552 181.712 142.572 182.23 142.692C182.685 142.798 183.088 142.978 183.441 143.233C183.803 143.49 184.094 143.806 184.313 144.183C184.534 144.551 184.673 144.962 184.73 145.416C184.789 145.861 184.752 146.331 184.617 146.827L184.483 147.342L178.511 145.952L178.489 145.056L183.821 146.297L183.576 146.484L183.669 146.146C183.742 145.751 183.713 145.38 183.583 145.034C183.453 144.687 183.248 144.391 182.97 144.144C182.702 143.899 182.381 143.734 182.008 143.647C181.481 143.524 181 143.532 180.565 143.67C180.133 143.8 179.769 144.046 179.474 144.408C179.19 144.764 178.978 145.222 178.837 145.784C178.715 146.35 178.719 146.868 178.849 147.339C178.981 147.801 179.224 148.198 179.578 148.529C179.944 148.854 180.399 149.079 180.944 149.206C181.335 149.297 181.714 149.318 182.08 149.269C182.448 149.211 182.841 149.068 183.258 148.839L183.605 149.696C183.336 149.863 183.032 149.994 182.694 150.088C182.367 150.175 182.025 150.224 181.668 150.237C181.31 150.25 180.963 150.217 180.627 150.139ZM188.185 151.897C187.521 151.743 186.967 151.446 186.523 151.008C186.09 150.562 185.788 150.027 185.617 149.402C185.446 148.778 185.443 148.111 185.608 147.402C185.775 146.684 186.074 146.083 186.503 145.598C186.934 145.104 187.441 144.758 188.024 144.558C188.618 144.351 189.233 144.322 189.87 144.47C190.224 144.552 190.556 144.692 190.865 144.888C191.174 145.085 191.436 145.318 191.651 145.589C191.877 145.852 192.042 146.13 192.147 146.423C192.251 146.715 192.28 147 192.235 147.277L191.949 147.21L193.101 142.261L194.137 142.502L191.789 152.592L190.753 152.351L191.2 150.428L191.421 150.466C191.331 150.732 191.175 150.969 190.954 151.176C190.733 151.384 190.473 151.558 190.172 151.698C189.882 151.832 189.564 151.921 189.218 151.965C188.875 152 188.53 151.978 188.185 151.897ZM188.52 151.012C188.993 151.122 189.438 151.101 189.857 150.95C190.287 150.791 190.655 150.527 190.961 150.157C191.268 149.788 191.484 149.33 191.611 148.785C191.738 148.239 191.746 147.733 191.634 147.266C191.522 146.8 191.308 146.4 190.993 146.068C190.686 145.738 190.292 145.517 189.81 145.405C189.329 145.293 188.868 145.315 188.429 145.472C188 145.63 187.626 145.898 187.308 146.274C187.002 146.644 186.785 147.101 186.658 147.647C186.536 148.174 186.529 148.676 186.639 149.151C186.76 149.62 186.978 150.021 187.293 150.353C187.62 150.678 188.029 150.898 188.52 151.012Z" fill="#28C76F"/>
<path d="M40.1191 20.7919L34.0001 47.0893L240.484 95.1345L242.042 88.441C243.043 84.1377 240.366 79.8374 236.063 78.8361L149.23 58.6318C144.927 57.6305 142.25 53.3302 143.252 49.0269L144.187 45.0066C145.188 40.7033 142.512 36.403 138.208 35.4017L49.724 14.813C45.4207 13.8117 41.1204 16.4885 40.1191 20.7919Z" fill="white"/>
</g>
<defs>
<filter id="filter0_d_58_71" x="-1" y="0.603088" width="257.251" height="197.074" filterUnits="userSpaceOnUse" color-interpolation-filters="sRGB">
<feFlood flood-opacity="0" result="BackgroundImageFix"/>
<feColorMatrix in="SourceAlpha" type="matrix" values="0 0 0 0 0 0 0 0 0 0 0 0 0 0 0 0 0 0 127 0" result="hardAlpha"/>
<feOffset/>
<feGaussianBlur stdDeviation="7"/>
<feComposite in2="hardAlpha" operator="out"/>
<feColorMatrix type="matrix" values="0 0 0 0 0 0 0 0 0 0 0 0 0 0 0 0 0 0 0.15 0"/>
<feBlend mode="normal" in2="BackgroundImageFix" result="effect1_dropShadow_58_71"/>
<feBlend mode="normal" in="SourceGraphic" in2="effect1_dropShadow_58_71" result="shape"/>
</filter>
</defs>
</svg>
