<svg width="51" height="51" viewBox="0 0 51 51" fill="none" xmlns="http://www.w3.org/2000/svg">
<path d="M16.4987 25.6666C16.8519 25.9571 17.1364 26.3221 17.332 26.7354C17.832 27.7666 17.832 29.027 17.832 30.25C17.832 32.7822 17.9362 34 20.332 34C20.553 34 20.765 34.0878 20.9213 34.244C21.0776 34.4003 21.1654 34.6123 21.1654 34.8333C21.1654 35.0543 21.0776 35.2663 20.9213 35.4225C20.765 35.5788 20.553 35.6666 20.332 35.6666C18.5112 35.6666 17.2779 35.027 16.6654 33.7645C16.1654 32.7333 16.1654 31.4729 16.1654 30.25C16.1654 27.7177 16.0612 26.5 13.6654 26.5C13.4444 26.5 13.2324 26.4122 13.0761 26.2559C12.9198 26.0996 12.832 25.8876 12.832 25.6666C12.832 25.4456 12.9198 25.2336 13.0761 25.0774C13.2324 24.9211 13.4444 24.8333 13.6654 24.8333C16.0612 24.8333 16.1654 23.6156 16.1654 21.0833C16.1654 19.8625 16.1654 18.6 16.6654 17.5687C17.2799 16.3062 18.5133 15.6666 20.3341 15.6666C20.5551 15.6666 20.7671 15.7544 20.9234 15.9107C21.0796 16.067 21.1674 16.2789 21.1674 16.5C21.1674 16.721 21.0796 16.9329 20.9234 17.0892C20.7671 17.2455 20.5551 17.3333 20.3341 17.3333C17.9383 17.3333 17.8341 18.551 17.8341 21.0833C17.8341 22.3041 17.8341 23.5666 17.3341 24.5979C17.1379 25.0114 16.8526 25.3764 16.4987 25.6666ZM37.0008 24.8333C34.6049 24.8333 34.5008 23.6156 34.5008 21.0833C34.5008 19.8625 34.5008 18.6 34.0008 17.5687C33.3883 16.3062 32.1549 15.6666 30.3341 15.6666C30.1131 15.6666 29.9011 15.7544 29.7449 15.9107C29.5886 16.067 29.5008 16.2789 29.5008 16.5C29.5008 16.721 29.5886 16.9329 29.7449 17.0892C29.9011 17.2455 30.1131 17.3333 30.3341 17.3333C32.7299 17.3333 32.8341 18.551 32.8341 21.0833C32.8341 22.3041 32.8341 23.5666 33.3341 24.5979C33.5297 25.0112 33.8143 25.3761 34.1674 25.6666C33.8143 25.9571 33.5297 26.3221 33.3341 26.7354C32.8341 27.7666 32.8341 29.027 32.8341 30.25C32.8341 32.7822 32.7299 34 30.3341 34C30.1131 34 29.9011 34.0878 29.7449 34.244C29.5886 34.4003 29.5008 34.6123 29.5008 34.8333C29.5008 35.0543 29.5886 35.2663 29.7449 35.4225C29.9011 35.5788 30.1131 35.6666 30.3341 35.6666C32.1549 35.6666 33.3883 35.027 34.0008 33.7645C34.5008 32.7333 34.5008 31.4729 34.5008 30.25C34.5008 27.7177 34.6049 26.5 37.0008 26.5C37.2218 26.5 37.4338 26.4122 37.59 26.2559C37.7463 26.0996 37.8341 25.8876 37.8341 25.6666C37.8341 25.4456 37.7463 25.2336 37.59 25.0774C37.4338 24.9211 37.2218 24.8333 37.0008 24.8333Z" fill="#0E0E0E"/>
</svg>
