<svg width="23" height="16" viewBox="0 0 23 16" fill="none" xmlns="http://www.w3.org/2000/svg">
<g id="triangle-fill 1">
<path id="Vector" d="M1.72568 2.76188C1.91928 2.52807 2.19879 2.33429 2.53555 2.20041C2.8723 2.06652 3.25419 1.99736 3.64204 2L19.3557 2C19.7436 1.99736 20.1255 2.06652 20.4622 2.20041C20.799 2.33429 21.0785 2.52807 21.2721 2.76188C21.461 2.98681 21.5605 3.24263 21.5605 3.50313C21.5605 3.76363 21.461 4.01945 21.2721 4.24438L13.417 13.7363C13.2207 13.9688 12.9404 14.1616 12.604 14.2956C12.2675 14.4296 11.8866 14.5 11.4989 14.5C11.1112 14.5 10.7303 14.4296 10.3938 14.2956C10.0573 14.1616 9.77705 13.9688 9.58072 13.7363L1.72388 4.24438C1.53524 4.01934 1.436 3.76346 1.43631 3.50296C1.43663 3.24246 1.5365 2.9867 1.72568 2.76188Z" fill="black"/>
</g>
</svg>
